<svg width="24" height="24" viewBox="0 0 24 24" fill="none" xmlns="http://www.w3.org/2000/svg">
<path d="M18.7778 14.7446V10.8C18.7778 7.2613 16.35 4.2803 13.0611 3.3838C12.7356 2.572 11.94 2 11 2C10.06 2 9.26444 2.572 8.93889 3.3838C5.65 4.2814 3.22222 7.2613 3.22222 10.8V14.7446L1.32556 16.6223C1.22218 16.7243 1.14019 16.8455 1.08432 16.979C1.02844 17.1124 0.99979 17.2555 1 17.4V19.6C1 19.8917 1.11706 20.1715 1.32544 20.3778C1.53381 20.5841 1.81643 20.7 2.11111 20.7H19.8889C20.1836 20.7 20.4662 20.5841 20.6746 20.3778C20.8829 20.1715 21 19.8917 21 19.6V17.4C21.0002 17.2555 20.9716 17.1124 20.9157 16.979C20.8598 16.8455 20.7778 16.7243 20.6744 16.6223L18.7778 14.7446ZM18.7778 18.5H3.22222V17.8554L5.11889 15.9777C5.22227 15.8757 5.30426 15.7545 5.36013 15.621C5.416 15.4876 5.44466 15.3445 5.44444 15.2V10.8C5.44444 7.7673 7.93667 5.3 11 5.3C14.0633 5.3 16.5556 7.7673 16.5556 10.8V15.2C16.5556 15.4926 16.6722 15.772 16.8811 15.9777L18.7778 17.8554V18.5ZM11 24C11.6881 24.0009 12.3594 23.7895 12.9205 23.3952C13.4817 23.0009 13.9048 22.4433 14.1311 21.8H7.86889C8.09518 22.4433 8.51831 23.0009 9.07946 23.3952C9.6406 23.7895 10.3119 24.0009 11 24Z" fill="#FF3E66"/>
</svg>
