<svg width="40" height="40" viewBox="0 0 40 40" fill="none" xmlns="http://www.w3.org/2000/svg">
<path d="M12.2009 20L26.629 5.17265C26.7477 5.05316 26.8417 4.9113 26.9053 4.75528C26.9689 4.59925 27.0009 4.43216 26.9995 4.26368C26.9981 4.0952 26.9633 3.92866 26.8971 3.77372C26.8309 3.61877 26.7347 3.47849 26.6139 3.36099C26.4932 3.24349 26.3503 3.1511 26.1936 3.08918C26.0369 3.02726 25.8695 2.99702 25.701 3.00023C25.5326 3.00344 25.3664 3.04002 25.2122 3.10787C25.058 3.17571 24.9187 3.27346 24.8025 3.39548L9.51133 19.1114C9.27988 19.3493 9.15039 19.6681 9.15039 20C9.15039 20.3319 9.27988 20.6507 9.51133 20.8886L24.8025 36.6045C24.9187 36.7265 25.058 36.8243 25.2122 36.8921C25.3664 36.96 25.5326 36.9966 25.701 36.9998C25.8695 37.003 26.0369 36.9727 26.1936 36.9108C26.3503 36.8489 26.4932 36.7565 26.6139 36.639C26.7347 36.5215 26.8309 36.3812 26.8971 36.2263C26.9633 36.0713 26.9981 35.9048 26.9995 35.7363C27.0009 35.5678 26.9689 35.4007 26.9053 35.2447C26.8417 35.0887 26.7477 34.9468 26.629 34.8273L12.2009 20Z" fill="black" fill-opacity="0.3"/>
</svg>
