<svg width="24" height="24" viewBox="0 0 24 24" fill="none" xmlns="http://www.w3.org/2000/svg">
<path fill-rule="evenodd" clip-rule="evenodd" d="M20.9133 9.63938L20.9052 9.63085C20.5587 9.26415 20.2021 8.8868 20.067 8.55469C19.9413 8.24873 19.9337 7.742 19.9263 7.25072L19.9263 7.24781L19.9262 7.24421C19.9123 6.33009 19.8966 5.29499 19.1855 4.575C18.4744 3.85501 17.4521 3.8391 16.5493 3.82506L16.5457 3.825L16.5428 3.82496C16.0576 3.81747 15.5571 3.80975 15.255 3.6825C14.9263 3.54508 14.5506 3.18116 14.1868 2.82867L14.1837 2.82562C13.5448 2.20406 12.8188 1.5 11.8522 1.5C10.8855 1.5 10.1605 2.20406 9.5207 2.82562L9.5123 2.83377C9.15012 3.18466 8.77742 3.54575 8.4494 3.6825C8.14914 3.80972 7.64699 3.81747 7.16187 3.82495L7.15866 3.825L7.1551 3.82506C6.25227 3.8391 5.22995 3.85501 4.51885 4.575C3.81749 5.28513 3.79709 6.30179 3.77894 7.20658C3.77866 7.22035 3.77839 7.2341 3.77811 7.24781L3.77806 7.25072C3.77067 7.742 3.76305 8.24873 3.63737 8.55469C3.50165 8.88748 3.14222 9.26781 2.79408 9.63619L2.79107 9.63938C2.17718 10.2863 1.48181 11.0212 1.48181 12C1.48181 12.9788 2.17718 13.7128 2.79107 14.3606L2.79911 14.3691C3.14567 14.7358 3.5023 15.1132 3.63737 15.4453C3.76305 15.7513 3.77067 16.258 3.77806 16.7493L3.77811 16.7522L3.77816 16.7558C3.79204 17.6699 3.80775 18.705 4.51885 19.425C5.22995 20.145 6.25226 20.1609 7.1551 20.1749L7.15866 20.175L7.16151 20.175C7.64673 20.1825 8.14722 20.1903 8.4494 20.3175C8.77808 20.4549 9.1537 20.8188 9.51753 21.1713L9.51755 21.1713L9.5207 21.1744C10.1596 21.7959 10.8855 22.5 11.8522 22.5C12.8188 22.5 13.5438 21.7959 14.1837 21.1744L14.1921 21.1662C14.5542 20.8153 14.9269 20.4543 15.255 20.3175C15.5571 20.1903 16.0576 20.1825 16.5429 20.175L16.5457 20.175L16.5493 20.1749C17.4521 20.1609 18.4744 20.145 19.1855 19.425C19.8966 18.705 19.9123 17.6699 19.9262 16.7558L19.9263 16.7522L19.9263 16.7493C19.9337 16.258 19.9413 15.7513 20.067 15.4453C20.2027 15.1125 20.5621 14.7322 20.9103 14.3638L20.9103 14.3638L20.9133 14.3606C21.5272 13.7137 22.2226 12.9788 22.2226 12C22.2226 11.0212 21.5272 10.2872 20.9133 9.63938ZM16.7072 10.7071C17.0978 10.3166 17.0978 9.68342 16.7072 9.29289C16.3167 8.90237 15.6835 8.90237 15.293 9.29289L11.0001 13.5858L9.70723 12.2929C9.3167 11.9024 8.68354 11.9024 8.29302 12.2929C7.90249 12.6834 7.90249 13.3166 8.29302 13.7071L10.293 15.7071C10.6835 16.0976 11.3167 16.0976 11.7072 15.7071L16.7072 10.7071Z" fill="#FF3E66"/>
</svg>
