<svg width="18" height="18" viewBox="0 0 18 18" fill="none" xmlns="http://www.w3.org/2000/svg">
<path fill-rule="evenodd" clip-rule="evenodd" d="M10.7517 1.87012C9.87205 0.709961 8.12795 0.709961 7.24826 1.87012C6.76827 2.50314 5.9841 2.82796 5.19708 2.71975C3.75469 2.52143 2.52143 3.75469 2.71975 5.19708C2.82796 5.9841 2.50314 6.76827 1.87012 7.24826C0.709961 8.12795 0.709961 9.87205 1.87012 10.7517C2.50314 11.2317 2.82796 12.0159 2.71975 12.8029C2.52143 14.2453 3.75469 15.4786 5.19708 15.2803C5.9841 15.172 6.76827 15.4969 7.24826 16.1299C8.12795 17.29 9.87205 17.29 10.7517 16.1299C11.2317 15.4969 12.0159 15.172 12.8029 15.2803C14.2453 15.4786 15.4786 14.2453 15.2803 12.8029C15.172 12.0159 15.4969 11.2317 16.1299 10.7517C17.29 9.87205 17.29 8.12795 16.1299 7.24826C15.4969 6.76827 15.172 5.9841 15.2803 5.19708C15.4786 3.75469 14.2453 2.52143 12.8029 2.71975C12.0159 2.82796 11.2317 2.50314 10.7517 1.87012ZM12.7028 7.98276C13.01 7.67554 13.01 7.17745 12.7028 6.87023C12.3956 6.56301 11.8975 6.56301 11.5903 6.87023L8.21315 10.2473L7.19606 9.23026C6.88884 8.92304 6.39075 8.92304 6.08353 9.23026C5.77632 9.53748 5.77632 10.0356 6.08353 10.3428L7.65689 11.9161C7.9641 12.2234 8.4622 12.2234 8.76941 11.9161L12.7028 7.98276Z" fill="#42C9DD"/>
</svg>
