<svg width="24" height="24" viewBox="0 0 24 24" fill="none" xmlns="http://www.w3.org/2000/svg">
<path d="M10.5703 3.54083C11.2883 2.59381 12.712 2.59381 13.4301 3.54083C14.2586 4.63346 15.6121 5.19411 16.9706 5.00734C18.148 4.84545 19.1547 5.85215 18.9928 7.02956C18.806 8.38799 19.3666 9.74152 20.4593 10.57C21.4063 11.2881 21.4063 12.7118 20.4593 13.4299C19.3666 14.2583 18.806 15.6119 18.9928 16.9703C19.1547 18.1477 18.148 19.1544 16.9706 18.9925C15.6121 18.8057 14.2586 19.3664 13.4301 20.459C12.712 21.4061 11.2883 21.4061 10.5703 20.459C9.74176 19.3664 8.38824 18.8057 7.0298 18.9925C5.85239 19.1544 4.8457 18.1477 5.00758 16.9703C5.19436 15.6119 4.63371 14.2583 3.54108 13.4299C2.59405 12.7118 2.59405 11.2881 3.54108 10.57C4.63371 9.74152 5.19436 8.38799 5.00758 7.02956C4.84569 5.85215 5.85239 4.84545 7.0298 5.00734C8.38824 5.19411 9.74176 4.63346 10.5703 3.54083Z" stroke="#212121" stroke-width="2"/>
<path fill-rule="evenodd" clip-rule="evenodd" d="M16.7074 9.29289C17.0979 9.68342 17.0979 10.3166 16.7074 10.7071L11.7074 15.7071C11.3168 16.0976 10.6837 16.0976 10.2931 15.7071L8.29314 13.7071C7.90261 13.3166 7.90261 12.6834 8.29314 12.2929C8.68366 11.9024 9.31683 11.9024 9.70735 12.2929L11.0002 13.5858L15.2931 9.29289C15.6837 8.90237 16.3168 8.90237 16.7074 9.29289Z" fill="#212121"/>
</svg>
