<svg width="25" height="24" viewBox="0 0 25 24" fill="none" xmlns="http://www.w3.org/2000/svg">
<path d="M4.25 10.5005C4.05109 10.5005 3.86032 10.4214 3.71967 10.2808C3.57902 10.1401 3.5 9.94937 3.5 9.75045V3.75195C3.5 3.55304 3.57902 3.36228 3.71967 3.22162C3.86032 3.08097 4.05109 3.00195 4.25 3.00195H10.25C10.4489 3.00195 10.6397 3.08097 10.7803 3.22162C10.921 3.36228 11 3.55304 11 3.75195V9.75045C11 9.94937 10.921 10.1401 10.7803 10.2808C10.6397 10.4214 10.4489 10.5005 10.25 10.5005H4.25ZM14.75 10.5005C14.5511 10.5005 14.3603 10.4214 14.2197 10.2808C14.079 10.1401 14 9.94937 14 9.75045V3.75195C14 3.55304 14.079 3.36228 14.2197 3.22162C14.3603 3.08097 14.5511 3.00195 14.75 3.00195H20.7485C20.9474 3.00195 21.1382 3.08097 21.2788 3.22162C21.4195 3.36228 21.4985 3.55304 21.4985 3.75195V9.75045C21.4985 9.94937 21.4195 10.1401 21.2788 10.2808C21.1382 10.4214 20.9474 10.5005 20.7485 10.5005H14.75ZM4.25 21.0005C4.05109 21.0005 3.86032 20.9214 3.71967 20.7808C3.57902 20.6401 3.5 20.4494 3.5 20.2505V14.2505C3.5 14.0515 3.57902 13.8608 3.71967 13.7201C3.86032 13.5795 4.05109 13.5005 4.25 13.5005H10.25C10.4489 13.5005 10.6397 13.5795 10.7803 13.7201C10.921 13.8608 11 14.0515 11 14.2505V20.2505C11 20.4494 10.921 20.6401 10.7803 20.7808C10.6397 20.9214 10.4489 21.0005 10.25 21.0005H4.25ZM14.75 21.0005C14.5511 21.0005 14.3603 20.9214 14.2197 20.7808C14.079 20.6401 14 20.4494 14 20.2505V14.2505C14 14.0515 14.079 13.8608 14.2197 13.7201C14.3603 13.5795 14.5511 13.5005 14.75 13.5005H20.7485C20.9474 13.5005 21.1382 13.5795 21.2788 13.7201C21.4195 13.8608 21.4985 14.0515 21.4985 14.2505V20.2505C21.4985 20.4494 21.4195 20.6401 21.2788 20.7808C21.1382 20.9214 20.9474 21.0005 20.7485 21.0005H14.75Z" fill="black"/>
</svg>
