<svg width="24" height="24" viewBox="0 0 24 24" fill="none" xmlns="http://www.w3.org/2000/svg">
<path d="M4.24264 5.75736L4.58579 5.41421C5.36684 4.63316 6.63316 4.63316 7.41421 5.41421L9.58579 7.58579C10.3668 8.36684 10.3668 9.63317 9.58579 10.4142L8 12L12 16L13.5858 14.4142C14.3668 13.6332 15.6332 13.6332 16.4142 14.4142L18.5858 16.5858C19.3668 17.3668 19.3668 18.6332 18.5858 19.4142L18.2426 19.7574C15.8995 22.1005 12.1005 22.1005 9.75736 19.7574L4.24264 14.2426C1.89949 11.8995 1.8995 8.1005 4.24264 5.75736Z" stroke="#212121" stroke-width="2" stroke-linecap="round" stroke-linejoin="round"/>
<path d="M15 11C15 10.7374 14.9483 10.4773 14.8478 10.2346C14.7472 9.99198 14.5999 9.7715 14.4142 9.58579C14.2285 9.40007 14.008 9.25275 13.7654 9.15224C13.5227 9.05173 13.2626 9 13 9" stroke="#212121" stroke-width="2" stroke-linecap="round"/>
<path d="M18 10C18 9.47471 17.8965 8.95457 17.6955 8.46927C17.4945 7.98396 17.1999 7.54301 16.8284 7.17157C16.457 6.80014 16.016 6.5055 15.5307 6.30448C15.0454 6.10346 14.5253 6 14 6" stroke="#212121" stroke-width="2" stroke-linecap="round"/>
<path d="M21 9C21 8.21207 20.8448 7.43185 20.5433 6.7039C20.2417 5.97595 19.7998 5.31451 19.2426 4.75736C18.6855 4.20021 18.0241 3.75825 17.2961 3.45672C16.5681 3.15519 15.7879 3 15 3" stroke="#212121" stroke-width="2" stroke-linecap="round"/>
</svg>
