<svg width="24" height="24" viewBox="0 0 24 24" fill="none" xmlns="http://www.w3.org/2000/svg">
<path fill-rule="evenodd" clip-rule="evenodd" d="M11.6 5C15.1974 5 18.2 8.08505 18.2 12C18.2 15.9149 15.1974 19 11.6 19C8.00263 19 5 15.9149 5 12C5 8.08505 8.00263 5 11.6 5ZM20.2 12C20.2 7.07839 16.3974 3 11.6 3C6.80264 3 3 7.07839 3 12C3 16.9216 6.80264 21 11.6 21C16.3974 21 20.2 16.9216 20.2 12Z" fill="#212121"/>
<path fill-rule="evenodd" clip-rule="evenodd" d="M17.2474 6.19167C15.2953 5.2006 12.8887 5 11.2002 5V3C12.9781 3 15.7715 3.1994 18.1528 4.40833C19.3588 5.02061 20.4828 5.90378 21.302 7.16897C22.1241 8.43855 22.6002 10.0327 22.6002 12C22.6002 13.9673 22.1241 15.5614 21.302 16.831C20.4828 18.0962 19.3588 18.9794 18.1528 19.5917C15.7715 20.8006 12.9781 21 11.2002 21V19C12.8887 19 15.2953 18.7994 17.2474 17.8083C18.2081 17.3206 19.0341 16.6538 19.6233 15.744C20.2096 14.8386 20.6002 13.6327 20.6002 12C20.6002 10.3673 20.2096 9.16145 19.6233 8.25603C19.0341 7.34622 18.2081 6.67939 17.2474 6.19167Z" fill="#212121"/>
<path fill-rule="evenodd" clip-rule="evenodd" d="M9 8.5C9 8.22386 9.22386 8 9.5 8H13C14.6569 8 16 9.34315 16 11C16 12.6569 14.6569 14 13 14H11V16C11 16.5523 10.5523 17 10 17C9.44772 17 9 16.5523 9 16V8.5ZM11 12V10H13C13.5523 10 14 10.4477 14 11C14 11.5523 13.5523 12 13 12H11Z" fill="#212121"/>
</svg>
