<svg width="12" height="12" viewBox="0 0 12 12" fill="none" xmlns="http://www.w3.org/2000/svg">
<path d="M1 2H6C6.55228 2 7 2.94772 7 3.5V8H2C1.44772 8 1 7.55228 1 7V2Z" fill="#69CB3B"/>
<path d="M7 6H10.5V7C10.5 7.55228 10.5523 8 10 8H7V6Z" fill="#69CB3B"/>
<path fill-rule="evenodd" clip-rule="evenodd" d="M10.4333 5.5C10.5 5.79443 10.5 6 10.5 6V7C10.5 7.04483 10.5003 7.08897 10.5007 7.13224C10.5045 7.62202 10.5075 8 10 8H2C1.44772 8 1 7.55228 1 7V2H6C6.41568 2 6.77212 2.53687 6.92302 3.03793C6.97261 3.2026 7 3.36339 7 3.5C7 3.5 7.43876 3.42687 7.99988 3.47837C8.47626 3.52209 9.04084 3.65563 9.5 4C10.0945 4.44585 10.3355 5.0684 10.4333 5.5ZM7.77947 2.46313C7.83074 2.46485 7.88344 2.46733 7.93738 2.4707C8.52497 2.50742 9.37591 2.65693 10.1 3.2C10.8204 3.74032 11.1656 4.4504 11.3308 4.98716C11.4141 5.25782 11.4559 5.49726 11.4771 5.67264C11.4878 5.76092 11.4935 5.83467 11.4965 5.89011C11.4981 5.91788 11.4989 5.94122 11.4994 5.95964L11.4999 5.98361L11.5 5.99277L11.5 5.99663L11.5 5.99838C11.5 5.99878 11.5 6 10.5 6H11.5V7C11.5 7.02787 11.5003 7.06159 11.5005 7.09873C11.5013 7.19708 11.5022 7.31938 11.4991 7.42039C11.4945 7.56573 11.4809 7.7814 11.4125 8.00256C11.3384 8.24218 11.1863 8.53081 10.8821 8.7424C10.5886 8.94649 10.2662 9 10 9H9.91465C9.96992 9.15639 10 9.32468 10 9.5C10 10.3284 9.32843 11 8.5 11C7.67157 11 7 10.3284 7 9.5C7 9.32468 7.03008 9.15639 7.08535 9H4.91465C4.96992 9.15639 5 9.32468 5 9.5C5 10.3284 4.32843 11 3.5 11C2.67157 11 2 10.3284 2 9.5C2 9.32468 2.03008 9.15639 2.08535 9H2C0.895431 9 0 8.10457 0 7V1H6C6.43546 1 6.78307 1.18769 7.0209 1.38146C7.25775 1.57444 7.43692 1.81248 7.56783 2.03382C7.6464 2.16666 7.71806 2.31161 7.77947 2.46313ZM3.5 9C3.22386 9 3 9.22386 3 9.5C3 9.77614 3.22386 10 3.5 10C3.77614 10 4 9.77614 4 9.5C4 9.22386 3.77614 9 3.5 9ZM8.5 9C8.22386 9 8 9.22386 8 9.5C8 9.77614 8.22386 10 8.5 10C8.77614 10 9 9.77614 9 9.5C9 9.22386 8.77614 9 8.5 9Z" fill="#69CB3B"/>
<path d="M0 2H1.5C1.77614 2 2 2.22386 2 2.5C2 2.77614 1.77614 3 1.5 3H0V2Z" fill="white"/>
<path d="M0 4H2.5C2.77614 4 3 4.22386 3 4.5C3 4.77614 2.77614 5 2.5 5H0V4Z" fill="white"/>
</svg>
