<svg width="24" height="24" viewBox="0 0 24 24" fill="none" xmlns="http://www.w3.org/2000/svg">
<path fill-rule="evenodd" clip-rule="evenodd" d="M4 5C4 4.44772 4.44772 4 5 4H15C16.1046 4 17 4.89543 17 6H18.4338C19.1363 6 19.7873 6.3686 20.1488 6.97101L22.8575 11.4855L23 11.723V12V15C23 16.6569 21.6569 18 20 18H18.9646C18.7219 19.6961 17.2632 21 15.5 21C13.7365 21 12.2777 19.6958 12.0354 17.9994C12.0236 17.9998 12.0118 18 12 18H9.96456C9.72194 19.6961 8.26324 21 6.5 21C4.567 21 3 19.433 3 17.5C3 15.567 4.567 14 6.5 14C7.8962 14 9.10145 14.8175 9.66318 16H12C12.1095 16 12.2149 16.0176 12.3135 16.0501C12.7986 14.9857 13.8013 14.2069 15 14.0354V12V7V6H5C4.44772 6 4 5.55228 4 5ZM17 14.3368C17.7278 14.6826 18.3174 15.2722 18.6632 16H20C20.5523 16 21 15.5523 21 15V13H17V14.3368ZM17 11H20.2338L18.4338 8H17V11ZM2 9C2 8.44772 2.44772 8 3 8H8C8.55228 8 9 8.44772 9 9C9 9.55228 8.55228 10 8 10H3C2.44772 10 2 9.55228 2 9ZM5 12C5 11.4477 5.44772 11 6 11H11C11.5523 11 12 11.4477 12 12C12 12.5523 11.5523 13 11 13H6C5.44772 13 5 12.5523 5 12ZM6.5 16C5.67157 16 5 16.6716 5 17.5C5 18.3284 5.67157 19 6.5 19C7.32843 19 8 18.3284 8 17.5C8 16.6716 7.32843 16 6.5 16ZM14 17.5C14 16.6716 14.6716 16 15.5 16C16.3284 16 17 16.6716 17 17.5C17 18.3284 16.3284 19 15.5 19C14.6716 19 14 18.3284 14 17.5Z" fill="#212121"/>
</svg>
