<svg width="12" height="12" viewBox="0 0 12 12" fill="none" xmlns="http://www.w3.org/2000/svg">
<g clip-path="url(#clip0_767_50452)">
<path d="M10.02 4.35497V1.99997H7.66997L5.99997 0.344971L4.35497 1.99997H1.99997V4.35497L0.344971 5.99997L1.99997 7.66997V10.02H4.35497L5.99997 11.675L7.66997 10.02H10.02V7.66997L11.675 5.99997L10.02 4.35497ZM4.41497 3.52497C4.90497 3.52497 5.29997 3.91997 5.29997 4.41497C5.29997 4.64969 5.20673 4.87479 5.04076 5.04076C4.87479 5.20673 4.64969 5.29997 4.41497 5.29997C3.91997 5.29997 3.52497 4.90497 3.52497 4.41497C3.52497 3.91997 3.91997 3.52497 4.41497 3.52497ZM7.60997 8.49997C7.11997 8.49997 6.72497 8.09997 6.72497 7.60997C6.72497 7.37525 6.81821 7.15015 6.98418 6.98418C7.15015 6.81821 7.37525 6.72497 7.60997 6.72497C8.09997 6.72497 8.49997 7.11997 8.49997 7.60997C8.49997 7.84601 8.4062 8.07239 8.2393 8.2393C8.07239 8.4062 7.84601 8.49997 7.60997 8.49997ZM4.24997 8.51497L3.49997 7.76497L7.76497 3.49997L8.51497 4.24997L4.24997 8.51497Z" fill="#4E8AFF"/>
</g>
<defs>
<clipPath id="clip0_767_50452">
<rect width="12" height="12" fill="white"/>
</clipPath>
</defs>
</svg>
