<svg width="18" height="18" viewBox="0 0 18 18" fill="none" xmlns="http://www.w3.org/2000/svg">
<path fill-rule="evenodd" clip-rule="evenodd" d="M8.5 4C8.77614 4 9 4.22386 9 4.5V9.29485L11.1464 7.1484C11.3417 6.95314 11.6583 6.95314 11.8536 7.1484C12.0488 7.34366 12.0488 7.66024 11.8536 7.85551L8.5 11.2091L5.14645 7.85551C4.95118 7.66024 4.95118 7.34366 5.14645 7.1484C5.34171 6.95314 5.65829 6.95314 5.85355 7.1484L8 9.29485V4.5C8 4.22386 8.22386 4 8.5 4ZM5 12.502C5 12.2258 5.22386 12.002 5.5 12.002H11.5C11.7761 12.002 12 12.2258 12 12.502C12 12.7781 11.7761 13.002 11.5 13.002H5.5C5.22386 13.002 5 12.7781 5 12.502Z" fill="white"/>
</svg>
