<svg width="16" height="17" viewBox="0 0 16 17" fill="none" xmlns="http://www.w3.org/2000/svg">
<path d="M8.414 11.67C7.526 11.67 6.824 11.418 6.308 10.914C5.792 10.41 5.534 9.654 5.534 8.646C5.534 7.614 5.81 6.846 6.362 6.342C6.926 5.826 7.652 5.568 8.54 5.568C8.888 5.568 9.212 5.604 9.512 5.676C9.812 5.748 10.1 5.856 10.376 6L9.89 7.26C9.65 7.152 9.422 7.074 9.206 7.026C8.99 6.966 8.768 6.936 8.54 6.936C8.144 6.936 7.832 7.08 7.604 7.368C7.388 7.656 7.28 8.082 7.28 8.646C7.28 9.21 7.388 9.63 7.604 9.906C7.832 10.182 8.138 10.32 8.522 10.32C8.798 10.32 9.08 10.278 9.368 10.194C9.656 10.098 9.944 9.978 10.232 9.834V11.22C9.956 11.364 9.674 11.478 9.386 11.562C9.098 11.634 8.774 11.67 8.414 11.67ZM8 16.368C6.92 16.368 5.906 16.164 4.958 15.756C4.022 15.36 3.194 14.808 2.474 14.1C1.766 13.38 1.208 12.552 0.8 11.616C0.404 10.668 0.206 9.654 0.206 8.574C0.206 7.494 0.404 6.486 0.8 5.55C1.208 4.602 1.766 3.774 2.474 3.066C3.194 2.346 4.022 1.788 4.958 1.392C5.906 0.983999 6.92 0.78 8 0.78C9.08 0.78 10.088 0.983999 11.024 1.392C11.972 1.788 12.8 2.346 13.508 3.066C14.228 3.774 14.786 4.602 15.182 5.55C15.59 6.486 15.794 7.494 15.794 8.574C15.794 9.654 15.59 10.668 15.182 11.616C14.786 12.552 14.228 13.38 13.508 14.1C12.8 14.808 11.972 15.36 11.024 15.756C10.088 16.164 9.08 16.368 8 16.368ZM8 14.766C8.864 14.766 9.668 14.61 10.412 14.298C11.156 13.974 11.81 13.53 12.374 12.966C12.95 12.39 13.394 11.73 13.706 10.986C14.03 10.23 14.192 9.426 14.192 8.574C14.192 7.71 14.03 6.906 13.706 6.162C13.394 5.418 12.95 4.764 12.374 4.2C11.81 3.624 11.15 3.18 10.394 2.868C9.65 2.544 8.852 2.382 8 2.382C7.136 2.382 6.332 2.544 5.588 2.868C4.844 3.18 4.184 3.624 3.608 4.2C3.044 4.764 2.6 5.424 2.276 6.18C1.964 6.924 1.808 7.722 1.808 8.574C1.808 9.438 1.964 10.242 2.276 10.986C2.6 11.73 3.044 12.39 3.608 12.966C4.184 13.53 4.844 13.974 5.588 14.298C6.344 14.61 7.148 14.766 8 14.766Z" fill="#212121"/>
</svg>
