<svg width="12" height="12" viewBox="0 0 12 12" fill="none" xmlns="http://www.w3.org/2000/svg">
<path d="M1 5.99995H5V11H2.3C1.58203 11 1 10.4179 1 9.69995V5.99995Z" fill="#8F6FEF"/>
<path d="M6 5.99995H10V9.69995C10 10.4179 9.41797 11 8.7 11H6V5.99995Z" fill="#8F6FEF"/>
<path d="M0 3.99995H6V5.99995H0V3.99995Z" fill="#8F6FEF"/>
<path d="M6 3.99995H11V5.99995H6V3.99995Z" fill="#8F6FEF"/>
<path d="M2 1.82644V3.09574C2 3.33151 2.1647 3.53524 2.39524 3.58464L6.30557 4.42257C7.01534 4.57467 7.45893 3.67903 6.90779 3.20663L4.14603 0.839404C3.30275 0.116596 2 0.715778 2 1.82644Z" fill="#8F6FEF"/>
<path d="M9 1.82644V3.09574C9 3.33151 8.8353 3.53524 8.60476 3.58464L4.69443 4.42257C3.98466 4.57467 3.54107 3.67903 4.09221 3.20663L6.85397 0.839404C7.69725 0.116596 9 0.715778 9 1.82644Z" fill="#8F6FEF"/>
</svg>
