<svg width="24" height="24" viewBox="0 0 24 24" fill="none" xmlns="http://www.w3.org/2000/svg">
<path fill-rule="evenodd" clip-rule="evenodd" d="M9.41749 5.80546C8.57426 4.9648 7.41426 4.5 6.26136 4.5C5.35017 4.5 4.49696 4.78862 3.81731 5.34688C2.02416 6.82341 1.94291 9.38539 3.51441 10.9644L11.998 19.1775L20.4824 10.9636C22.0577 9.38439 21.9765 6.82262 20.1826 5.34623C18.646 4.08485 16.163 4.23361 14.5815 5.80718L12.0004 8.37195L9.41749 5.80546ZM21.6705 3.38462C24.6142 5.80735 24.7688 10.1556 22.1298 12.7817L13.0597 21.5627C12.4738 22.1458 11.5222 22.1458 10.9363 21.5627L1.86617 12.7817C-0.768159 10.1556 -0.613478 5.80735 2.33022 3.38462C3.47237 2.44605 4.8623 2 6.26136 2C8.00879 2 9.77012 2.69654 11.0769 3.99934L12.0003 4.91691L12.9238 3.99934C15.2815 1.65346 19.1018 1.27378 21.6705 3.38462Z" fill="#212121"/>
</svg>
