<svg width="14" height="14" viewBox="0 0 14 14" fill="none" xmlns="http://www.w3.org/2000/svg">
<path d="M2.16669 10.4998V6.8118C2.16669 6.15918 2.48511 5.5476 3.01976 5.17334L5.8531 3.19001C6.54174 2.70796 7.45831 2.70796 8.14695 3.19001L10.9803 5.17334C11.5149 5.5476 11.8334 6.15918 11.8334 6.8118V10.4998C11.8334 11.2362 11.2364 11.8332 10.5 11.8332C9.76364 11.8332 9.16669 11.2362 9.16669 10.4998V9.33317C9.16669 8.13655 8.19664 7.1665 7.00002 7.1665C5.8034 7.1665 4.83335 8.13655 4.83335 9.33317V10.4998C4.83335 11.2362 4.2364 11.8332 3.50002 11.8332C2.76364 11.8332 2.16669 11.2362 2.16669 10.4998Z" stroke="#212121" stroke-width="2"/>
</svg>
