<svg width="60" height="56" viewBox="0 0 60 56" fill="none" xmlns="http://www.w3.org/2000/svg">
<path fill-rule="evenodd" clip-rule="evenodd" d="M52.7998 26.5508H51.3498H8.19981H6.69981V22.6508H15.2998H24.8998H34.5498H44.1498H52.6998V26.5508H52.7998ZM50.3498 46.7508H24.6498V36.7008C24.6498 33.5008 22.0498 30.9008 18.8498 30.9008C15.6498 30.9008 13.0498 33.5008 13.0498 36.7008V46.7508H9.14981V28.5008H50.2998V46.7508H50.3498ZM15.0498 46.7508V36.7008C15.0498 34.6008 16.7498 32.8508 18.8498 32.8508C20.9498 32.8508 22.6498 34.5508 22.6498 36.7008V46.7508H15.0498ZM11.2498 11.6508H17.1998L14.5498 20.7008H7.24981L11.2498 11.6508ZM11.5998 6.75078H47.9998V9.65078H41.0498H18.5498H11.5998V6.75078ZM44.9498 20.7008L42.2998 11.6508H48.0998L52.1998 20.7008H44.9498ZM35.4498 20.7008L34.0498 11.6508H40.2498L42.8998 20.7008H35.4498ZM27.4998 11.6508H32.0998L33.4998 20.7008H26.0998L27.4998 11.6508ZM16.6498 20.7008L19.2998 11.6508H25.4998L24.0998 20.7008H16.6498ZM54.7498 21.6508C54.7498 21.6008 54.7498 21.6008 54.7498 21.6508C54.7498 21.6008 54.7498 21.5508 54.7498 21.5508C54.7498 21.5508 54.7498 21.5508 54.7498 21.5008C54.7498 21.4008 54.6998 21.3508 54.6998 21.3008L49.9498 10.9008C49.9498 10.8508 49.9498 10.8008 49.9498 10.7008V5.80078C49.9498 5.25078 49.4998 4.80078 48.9498 4.80078H10.6498C10.0998 4.80078 9.64981 5.25078 9.64981 5.80078V10.5008L4.8498 21.2508C4.8498 21.3008 4.7998 21.3008 4.7998 21.3508C4.7998 21.4008 4.7998 21.4008 4.7998 21.4508C4.7998 21.4508 4.7998 21.4508 4.7998 21.5008C4.7998 21.5508 4.7998 21.5508 4.7998 21.6008V21.6508C4.7998 21.6508 4.7998 21.6508 4.7998 21.7008V27.5508C4.7998 28.1008 5.2498 28.5508 5.79981 28.5508H7.29981V47.7508C7.29981 48.3008 7.74981 48.7508 8.29981 48.7508H14.1498H23.7498H51.4498C51.9998 48.7508 52.4498 48.3008 52.4498 47.7508V28.5008H53.8998C54.4498 28.5008 54.8998 28.0508 54.8998 27.5008L54.7498 21.6508ZM30.4498 41.1008H44.4998V32.9008H30.4498V41.1008ZM29.4498 43.0508H45.4498C45.9998 43.0508 46.4498 42.6008 46.4498 42.0508V31.9008C46.4498 31.3508 45.9998 30.9008 45.4498 30.9008H29.4498C28.8998 30.9008 28.4498 31.3508 28.4498 31.9008V42.1008C28.4998 42.6508 28.8998 43.0508 29.4498 43.0508ZM20.5498 38.2508C19.6998 38.2508 18.9998 38.9508 18.9998 39.8008C18.9998 40.6508 19.6998 41.3508 20.5498 41.3508C21.3998 41.3508 22.0998 40.6508 22.0998 39.8008C22.0998 38.9508 21.3998 38.2508 20.5498 38.2508Z" fill="#212121"/>
<g clip-path="url(#clip0_1542_161029)">
<ellipse cx="50.249" cy="45.7461" rx="8.99999" ry="8.99999" fill="white"/>
<mask id="mask0_1542_161029" style="mask-type:luminance" maskUnits="userSpaceOnUse" x="41" y="36" width="19" height="19">
<path d="M50.249 53.8711C51.3162 53.8725 52.3732 53.663 53.3591 53.2545C54.3451 52.8461 55.2406 52.2469 55.9942 51.4913C56.7498 50.7377 57.3491 49.8421 57.7575 48.8562C58.1659 47.8702 58.3754 46.8133 58.374 45.7461C58.3754 44.6789 58.1658 43.622 57.7574 42.636C57.349 41.6501 56.7498 40.7546 55.9942 40.0009C55.2406 39.2453 54.3451 38.6461 53.3591 38.2377C52.3732 37.8293 51.3162 37.6197 50.249 37.6211C49.1818 37.6197 48.1249 37.8293 47.139 38.2377C46.153 38.6461 45.2575 39.2453 44.5038 40.0009C43.7482 40.7546 43.149 41.6501 42.7406 42.636C42.3322 43.622 42.1227 44.6789 42.124 45.7461C42.1226 46.8133 42.3322 47.8702 42.7406 48.8562C43.149 49.8421 43.7482 50.7377 44.5038 51.4913C45.2575 52.2469 46.153 52.8461 47.139 53.2545C48.1249 53.6629 49.1818 53.8725 50.249 53.8711Z" fill="white" stroke="white" stroke-width="2.16667" stroke-linejoin="round"/>
<path d="M46.999 45.7461L49.4365 48.1836L54.3115 43.3086" stroke="black" stroke-width="2.16667" stroke-linecap="round" stroke-linejoin="round"/>
</mask>
<g mask="url(#mask0_1542_161029)">
<path d="M40.499 35.9961H59.999V55.4961H40.499V35.9961Z" fill="#FF3E66"/>
</g>
</g>
<defs>
<clipPath id="clip0_1542_161029">
<rect width="19.5" height="19.5" fill="white" transform="translate(40.499 35.9961)"/>
</clipPath>
</defs>
</svg>
