<svg width="14" height="18" viewBox="0 0 14 18" fill="none" xmlns="http://www.w3.org/2000/svg">
<g clip-path="url(#clip0_4421_53168)">
<path fill-rule="evenodd" clip-rule="evenodd" d="M3 9.19167H1V14.1917H3V9.19167ZM0 8.19167V15.1917H4V8.19167H0Z" fill="#9E9E9E"/>
<path fill-rule="evenodd" clip-rule="evenodd" d="M4 8.42774V14.1917H10.8685C11.0918 14.1917 11.288 14.0437 11.3493 13.829L12.4922 9.82903C12.5834 9.50962 12.3436 9.19167 12.0114 9.19167H8.6639C7.4393 9.19167 6.50226 8.10106 6.68671 6.89043L6.95274 5.14433C6.986 4.92605 6.87214 4.7118 6.67263 4.61722L6.52713 4.54824C6.33614 4.4577 6.10885 4.49703 5.95939 4.64649L5.87923 4.72665L5.17212 4.01955L5.25229 3.93938C5.70066 3.49101 6.38253 3.37301 6.9555 3.64463L7.101 3.71361C7.69954 3.99736 8.0411 4.64011 7.94133 5.29495L7.6753 7.04105C7.58308 7.64636 8.0516 8.19167 8.6639 8.19167H12.0114C13.008 8.19167 13.7275 9.14553 13.4537 10.1038L12.3108 14.1038C12.1268 14.7477 11.5383 15.1917 10.8685 15.1917H3V8.19167L4.89114 4.40939C4.96324 4.26519 5.05812 4.13355 5.17212 4.01955L5.87923 4.72665C5.84123 4.76465 5.8096 4.80853 5.78557 4.8566L4 8.42774Z" fill="#9E9E9E"/>
</g>
<defs>
<clipPath id="clip0_4421_53168">
<rect width="14" height="17" fill="white" transform="translate(0 0.5)"/>
</clipPath>
</defs>
</svg>
