<svg width="18" height="18" viewBox="0 0 18 18" fill="none" xmlns="http://www.w3.org/2000/svg">
<g clip-path="url(#clip0_1876_80986)">
<path fill-rule="evenodd" clip-rule="evenodd" d="M3.21967 3.96967C3.51256 3.67678 3.98744 3.67678 4.28033 3.96967L8.78033 8.46967C9.07322 8.76256 9.07322 9.23744 8.78033 9.53033L4.28033 14.0303C3.98744 14.3232 3.51256 14.3232 3.21967 14.0303C2.92678 13.7374 2.92678 13.2626 3.21967 12.9697L7.18934 9L3.21967 5.03033C2.92678 4.73744 2.92678 4.26256 3.21967 3.96967Z" fill="#212121"/>
<path fill-rule="evenodd" clip-rule="evenodd" d="M9.21967 3.96967C9.51256 3.67678 9.98744 3.67678 10.2803 3.96967L14.7803 8.46967C15.0732 8.76256 15.0732 9.23744 14.7803 9.53033L10.2803 14.0303C9.98744 14.3232 9.51256 14.3232 9.21967 14.0303C8.92678 13.7374 8.92678 13.2626 9.21967 12.9697L13.1893 9L9.21967 5.03033C8.92678 4.73744 8.92678 4.26256 9.21967 3.96967Z" fill="#212121"/>
</g>
<defs>
<clipPath id="clip0_1876_80986">
<rect width="18" height="18" fill="white"/>
</clipPath>
</defs>
</svg>
