<svg width="24" height="24" viewBox="0 0 24 24" fill="none" xmlns="http://www.w3.org/2000/svg">
<path d="M4 12C4 13.5823 4.46919 15.129 5.34824 16.4446C6.22729 17.7602 7.47672 18.7855 8.93853 19.391C10.4003 19.9965 12.0089 20.155 13.5607 19.8463C15.1126 19.5376 16.538 18.7757 17.6569 17.6569C18.7757 16.538 19.5376 15.1126 19.8463 13.5607C20.155 12.0089 19.9965 10.4003 19.391 8.93854C18.7855 7.47673 17.7602 6.2273 16.4446 5.34825C15.129 4.4692 13.5822 4.00001 12 4.00001C9.70827 3.99747 7.50393 4.87921 5.84615 6.46154" stroke="#212121" stroke-width="2" stroke-linecap="round" stroke-linejoin="round"/>
<path d="M6.18783 3.74902L5.5 6.50035L8.25132 7.18818M12 8.60839V12.9999L9.03729 14.5343" stroke="#212121" stroke-width="2" stroke-linecap="round" stroke-linejoin="round"/>
</svg>
