<svg width="24" height="24" viewBox="0 0 24 24" fill="none" xmlns="http://www.w3.org/2000/svg">
<path fill-rule="evenodd" clip-rule="evenodd" d="M12 21C16.9706 21 21 16.9706 21 12C21 7.02944 16.9706 3 12 3C7.02944 3 3 7.02944 3 12C3 16.9706 7.02944 21 12 21ZM13 8.6084C13 8.05611 12.5523 7.6084 12 7.6084C11.4477 7.6084 11 8.05611 11 8.6084V12.3917L8.57742 13.6464C8.08701 13.9004 7.89535 14.5038 8.14935 14.9942C8.40334 15.4847 9.0068 15.6763 9.49722 15.4223L12.4599 13.8879C12.7917 13.716 13 13.3735 13 12.9999V8.6084Z" fill="#FF3E66"/>
</svg>
