<svg width="12" height="12" viewBox="0 0 12 12" fill="none" xmlns="http://www.w3.org/2000/svg">
<mask id="mask0_767_50456" style="mask-type:luminance" maskUnits="userSpaceOnUse" x="1" y="0" width="10" height="12">
<path d="M8.97775 10.386L10.3202 5.636C10.3413 5.56163 10.3448 5.48341 10.3305 5.40746C10.3162 5.33152 10.2844 5.25992 10.2378 5.1983C10.1912 5.13667 10.1309 5.08669 10.0617 5.05229C9.99251 5.01788 9.91628 4.99998 9.839 5H6.96875C6.92761 5 6.88699 4.99072 6.84993 4.97285C6.81288 4.95497 6.78033 4.92897 6.75471 4.89677C6.7291 4.86457 6.71108 4.82701 6.70199 4.78688C6.69291 4.74675 6.693 4.70509 6.70225 4.665L6.82725 4.124C6.94175 3.62775 6.9785 3.1165 6.93625 2.609L6.91325 2.33325C6.88861 2.03742 6.75991 1.75991 6.55 1.55C6.358 1.35795 6.09757 1.25004 5.826 1.25H5.766C5.60175 1.25 5.4505 1.339 5.371 1.4825L4.70625 2.67875C4.40825 3.21525 3.96402 3.6561 3.42525 3.95L1.7605 4.8575C1.68157 4.90057 1.61572 4.96412 1.56988 5.04147C1.52403 5.11881 1.49989 5.20709 1.5 5.297V10.25C1.5 10.3826 1.55268 10.5098 1.64645 10.6036C1.74022 10.6973 1.86739 10.75 2 10.75H8.49675C8.60562 10.75 8.71151 10.7144 8.79832 10.6487C8.88514 10.583 8.94814 10.4908 8.97775 10.386Z" fill="white" stroke="white" stroke-linecap="round" stroke-linejoin="round"/>
</mask>
<g mask="url(#mask0_767_50456)">
<path d="M0 0H12V12H0V0Z" fill="#32CEB2"/>
</g>
</svg>
