<svg width="12" height="12" viewBox="0 0 12 12" fill="none" xmlns="http://www.w3.org/2000/svg">
<g clip-path="url(#clip0_4143_469)">
<path d="M10.02 4.35522V2.00021H7.66997L5.99997 0.345215L4.35497 2.00021H1.99997V4.35522L0.344971 6.00022L1.99997 7.67022V10.0202H4.35497L5.99997 11.6752L7.66997 10.0202H10.02V7.67022L11.675 6.00022L10.02 4.35522ZM4.41497 3.52521C4.90497 3.52521 5.29997 3.92022 5.29997 4.41522C5.29997 4.64993 5.20673 4.87503 5.04076 5.041C4.87479 5.20697 4.64969 5.30022 4.41497 5.30022C3.91997 5.30022 3.52497 4.90522 3.52497 4.41522C3.52497 3.92022 3.91997 3.52521 4.41497 3.52521ZM7.60997 8.50021C7.11997 8.50021 6.72497 8.10021 6.72497 7.61022C6.72497 7.3755 6.81821 7.1504 6.98418 6.98443C7.15015 6.81846 7.37525 6.72521 7.60997 6.72521C8.09997 6.72521 8.49997 7.12022 8.49997 7.61022C8.49997 7.84626 8.4062 8.07263 8.2393 8.23954C8.07239 8.40645 7.84601 8.50021 7.60997 8.50021ZM4.24997 8.51521L3.49997 7.76521L7.76497 3.50021L8.51497 4.25021L4.24997 8.51521Z" fill="#4E8AFF"/>
</g>
<defs>
<clipPath id="clip0_4143_469">
<rect width="12" height="12" fill="white"/>
</clipPath>
</defs>
</svg>
