<svg width="36" height="36" viewBox="0 0 36 36" fill="none" xmlns="http://www.w3.org/2000/svg">
<path fill-rule="evenodd" clip-rule="evenodd" d="M16.5 6C10.701 6 6 10.701 6 16.5C6 22.299 10.701 27 16.5 27C19.3999 27 22.0229 25.8264 23.9246 23.9246C25.8264 22.0229 27 19.3999 27 16.5C27 10.701 22.299 6 16.5 6ZM3 16.5C3 9.04416 9.04416 3 16.5 3C23.9558 3 30 9.04416 30 16.5C30 19.6869 28.8943 22.6176 27.0478 24.9265L32.5607 30.4393C33.1464 31.0251 33.1464 31.9749 32.5607 32.5607C31.9749 33.1464 31.0251 33.1464 30.4393 32.5607L24.9265 27.0478C22.6176 28.8943 19.6869 30 16.5 30C9.04416 30 3 23.9558 3 16.5Z" fill="#212121"/>
</svg>
