<svg width="12" height="12" viewBox="0 0 12 12" fill="none" xmlns="http://www.w3.org/2000/svg">
<g clip-path="url(#clip0_823_38445)">
<path d="M11.3333 5.5931C11.4572 5.50081 11.5491 5.37206 11.5961 5.2249C11.6431 5.07775 11.6429 4.91956 11.5955 4.77253C11.5481 4.62551 11.4558 4.497 11.3317 4.40505C11.2075 4.31309 11.0577 4.26229 10.9033 4.25976L7.90328 4.14643C7.88853 4.14541 7.87439 4.14015 7.86256 4.13128C7.85073 4.12241 7.84172 4.11031 7.83661 4.09643L6.79995 1.29643C6.74786 1.15398 6.65326 1.03097 6.52895 0.944063C6.40464 0.857156 6.25662 0.810547 6.10495 0.810547C5.95327 0.810547 5.80526 0.857156 5.68095 0.944063C5.55663 1.03097 5.46203 1.15398 5.40995 1.29643L4.37661 4.10643C4.37151 4.12031 4.3625 4.13241 4.35067 4.14128C4.33884 4.15015 4.3247 4.15541 4.30995 4.15643L1.30995 4.26976C1.15548 4.27229 1.00568 4.32309 0.881545 4.41505C0.75741 4.507 0.665167 4.63551 0.61775 4.78254C0.570334 4.92956 0.570121 5.08775 0.617142 5.2349C0.664163 5.38206 0.75606 5.51081 0.879947 5.6031L3.23328 7.4531C3.24506 7.46237 3.25386 7.47488 3.2586 7.4891C3.26334 7.50332 3.26381 7.51862 3.25995 7.5331L2.44995 10.4031C2.40797 10.5492 2.41204 10.7048 2.46159 10.8485C2.51115 10.9923 2.60378 11.1173 2.7269 11.2065C2.85001 11.2958 2.99763 11.3449 3.14967 11.3473C3.3017 11.3496 3.45078 11.3051 3.57661 11.2198L6.06328 9.5531C6.07553 9.54464 6.09006 9.54011 6.10495 9.54011C6.11983 9.54011 6.13437 9.54464 6.14661 9.5531L8.63328 11.2198C8.75741 11.308 8.90596 11.3555 9.05828 11.3555C9.2106 11.3555 9.35915 11.308 9.48328 11.2198C9.60643 11.1314 9.69915 11.007 9.7487 10.8637C9.79824 10.7205 9.80217 10.5654 9.75995 10.4198L8.94328 7.53976C8.93895 7.52531 8.93919 7.50987 8.94396 7.49555C8.94874 7.48123 8.95781 7.46873 8.96995 7.45976L11.3333 5.5931Z" fill="#4E8AFF"/>
</g>
<defs>
<clipPath id="clip0_823_38445">
<rect width="12" height="12" fill="white"/>
</clipPath>
</defs>
</svg>
