<svg width="32" height="32" viewBox="0 0 32 32" fill="none" xmlns="http://www.w3.org/2000/svg">
<path d="M15.9993 2.66666C16.5163 2.66666 16.9866 2.96546 17.2063 3.43341L20.6123 10.6891L28.2019 11.8556C28.6957 11.9315 29.1056 12.2771 29.2639 12.751C29.4223 13.2249 29.3024 13.7475 28.9533 14.1049L23.4236 19.7684L24.7313 27.7853C24.8135 28.2893 24.6006 28.7959 24.1832 29.09C23.7657 29.384 23.217 29.4138 22.7701 29.1667L15.9993 25.4226L9.2286 29.1667C8.78174 29.4138 8.233 29.384 7.81554 29.09C7.39808 28.7959 7.18523 28.2893 7.26743 27.7853L8.57505 19.7684L3.04538 14.1049C2.69634 13.7475 2.57644 13.2249 2.73475 12.751C2.89306 12.2771 3.30301 11.9315 3.79683 11.8556L11.3864 10.6891L14.7924 3.43341C15.0121 2.96546 15.4824 2.66666 15.9993 2.66666Z" fill="#EEEEEE"/>
<path d="M15.9993 25.4226L9.2286 29.1667C8.78174 29.4138 8.233 29.384 7.81554 29.09C7.39808 28.7959 7.18523 28.2893 7.26743 27.7853L8.57505 19.7684L3.04538 14.1049C2.69634 13.7475 2.57644 13.2249 2.73475 12.751C2.89306 12.2771 3.30301 11.9315 3.79683 11.8556L11.3864 10.6891L14.7924 3.43341C15.0121 2.96546 15.4824 2.66666 15.9993 2.66666V25.4226Z" fill="#FFCC00"/>
</svg>
