<svg width="36" height="36" viewBox="0 0 36 36" fill="none" xmlns="http://www.w3.org/2000/svg">
<rect width="36" height="36" rx="18" fill="#FF3E66"/>
<path d="M18 25.9999C16.1435 25.9999 14.363 25.2624 13.0503 23.9496C11.7375 22.6369 11 20.8564 11 18.9999C11 17.1433 11.7375 15.3629 13.0503 14.0501C14.363 12.7374 16.1435 11.9999 18 11.9999C19.8565 11.9999 21.637 12.7374 22.9497 14.0501C24.2625 15.3629 25 17.1433 25 18.9999C25 20.8564 24.2625 22.6369 22.9497 23.9496C21.637 25.2624 19.8565 25.9999 18 25.9999ZM18 9.99986C15.6131 9.99986 13.3239 10.9481 11.636 12.6359C9.94821 14.3237 9 16.6129 9 18.9999C9 21.3868 9.94821 23.676 11.636 25.3638C13.3239 27.0517 15.6131 27.9999 18 27.9999C20.3869 27.9999 22.6761 27.0517 24.364 25.3638C26.0518 23.676 27 21.3868 27 18.9999C27 16.6129 26.0518 14.3237 24.364 12.6359C22.6761 10.9481 20.3869 9.99986 18 9.99986ZM18.5 13.9999H17V19.9999L21.75 22.8499L22.5 21.6199L18.5 19.2499V13.9999ZM13.88 9.38986L12.6 7.85986L8 11.7099L9.29 13.2399L13.88 9.38986ZM28 11.7199L23.4 7.85986L22.11 9.38986L26.71 13.2499L28 11.7199Z" fill="white"/>
</svg>
