<svg width="24" height="24" viewBox="0 0 24 24" fill="none" xmlns="http://www.w3.org/2000/svg">
<path fill-rule="evenodd" clip-rule="evenodd" d="M12 19C15.866 19 19 15.866 19 12C19 8.13401 15.866 5 12 5C8.13401 5 5 8.13401 5 12C5 15.866 8.13401 19 12 19ZM12 21C16.9706 21 21 16.9706 21 12C21 7.02944 16.9706 3 12 3C7.02944 3 3 7.02944 3 12C3 16.9706 7.02944 21 12 21Z" fill="#FF3E66"/>
<path d="M11 8C11.5523 8 12 8.44772 12 9V12H15C15.5523 12 16 12.4477 16 13C16 13.5523 15.5523 14 15 14H11C10.4477 14 10 13.5523 10 13V9C10 8.44772 10.4477 8 11 8Z" fill="#FF3E66"/>
</svg>
