<svg width="18" height="18" viewBox="0 0 18 18" fill="none" xmlns="http://www.w3.org/2000/svg">
<path d="M15.6849 7.22953C15.4231 6.9525 15.1523 6.66703 15.0502 6.41602C14.9558 6.18609 14.9502 5.805 14.9447 5.43586C14.9342 4.74961 14.9231 3.97195 14.3891 3.43125C13.8551 2.89055 13.087 2.8793 12.4092 2.86875C12.0447 2.86312 11.6683 2.8575 11.4412 2.76187C11.194 2.65852 10.9113 2.3843 10.6377 2.11922C10.1586 1.65305 9.61411 1.125 8.88911 1.125C8.16411 1.125 7.62036 1.65305 7.1405 2.11922C6.86688 2.3843 6.58494 2.65852 6.33702 2.76187C6.11133 2.8575 5.73355 2.86312 5.36897 2.86875C4.69119 2.8793 3.92313 2.89055 3.38911 3.43125C2.85508 3.97195 2.84744 4.74961 2.83355 5.43586C2.82799 5.805 2.82244 6.18609 2.72799 6.41602C2.62591 6.66633 2.35508 6.9525 2.09327 7.22953C1.63286 7.71469 1.11133 8.26594 1.11133 9C1.11133 9.73406 1.63286 10.2846 2.09327 10.7705C2.35508 11.0475 2.62591 11.333 2.72799 11.584C2.82244 11.8139 2.82799 12.195 2.83355 12.5641C2.84397 13.2504 2.85508 14.028 3.38911 14.5687C3.92313 15.1095 4.69119 15.1207 5.36897 15.1312C5.73355 15.1369 6.10994 15.1425 6.33702 15.2381C6.58425 15.3415 6.86688 15.6157 7.1405 15.8808C7.61966 16.347 8.16411 16.875 8.88911 16.875C9.61411 16.875 10.1579 16.347 10.6377 15.8808C10.9113 15.6157 11.1933 15.3415 11.4412 15.2381C11.6683 15.1425 12.0447 15.1369 12.4092 15.1312C13.087 15.1207 13.8551 15.1095 14.3891 14.5687C14.9231 14.028 14.9342 13.2504 14.9447 12.5641C14.9502 12.195 14.9558 11.8139 15.0502 11.584C15.1523 11.3337 15.4231 11.0475 15.6849 10.7705C16.1454 10.2853 16.6669 9.73406 16.6669 9C16.6669 8.26594 16.1454 7.71539 15.6849 7.22953ZM12.0599 6.91453C12.1116 6.96677 12.1526 7.02881 12.1805 7.0971C12.2085 7.16538 12.2229 7.23858 12.2229 7.3125C12.2229 7.38642 12.2085 7.45962 12.1805 7.5279C12.1526 7.59619 12.1116 7.65823 12.0599 7.71047L8.17105 11.648C8.11946 11.7003 8.05818 11.7418 7.99074 11.7701C7.9233 11.7984 7.851 11.8129 7.778 11.8129C7.70499 11.8129 7.63269 11.7984 7.56525 11.7701C7.49781 11.7418 7.43654 11.7003 7.38494 11.648L5.71827 9.96047C5.66666 9.90821 5.62571 9.84616 5.59778 9.77788C5.56984 9.7096 5.55546 9.63641 5.55546 9.5625C5.55546 9.48859 5.56984 9.4154 5.59778 9.34712C5.62571 9.27884 5.66666 9.21679 5.71827 9.16453C5.82252 9.05898 5.9639 8.99969 6.11133 8.99969C6.18433 8.99969 6.25661 9.01425 6.32405 9.04253C6.39149 9.07081 6.45277 9.11227 6.50438 9.16453L7.778 10.4548L11.2738 6.91453C11.3254 6.86223 11.3867 6.82074 11.4541 6.79244C11.5216 6.76413 11.5939 6.74956 11.6669 6.74956C11.7399 6.74956 11.8122 6.76413 11.8796 6.79244C11.9471 6.82074 12.0083 6.86223 12.0599 6.91453Z" fill="#FF3E66"/>
<path d="M12.1798 7.09754C12.1518 7.02925 12.1108 6.96721 12.0592 6.91497C12.0076 6.86267 11.9463 6.82119 11.8789 6.79288C11.8114 6.76457 11.7391 6.75 11.6661 6.75C11.5931 6.75 11.5208 6.76457 11.4534 6.79288C11.3859 6.82119 11.3246 6.86267 11.2731 6.91497L7.77722 10.4552L6.50361 9.16497C6.45199 9.11271 6.39071 9.07126 6.32327 9.04297C6.25583 9.01469 6.18355 9.00013 6.11055 9.00013C5.96313 9.00013 5.82174 9.05943 5.7175 9.16497C5.66588 9.21724 5.62493 9.27928 5.597 9.34756C5.56907 9.41585 5.55469 9.48903 5.55469 9.56294C5.55469 9.63685 5.56907 9.71004 5.597 9.77832C5.62493 9.84661 5.66588 9.90865 5.7175 9.96091L7.38416 11.6484C7.43576 11.7007 7.49703 11.7422 7.56447 11.7705C7.63192 11.7988 7.70421 11.8134 7.77722 11.8134C7.85023 11.8134 7.92252 11.7988 7.98996 11.7705C8.05741 11.7422 8.11868 11.7007 8.17027 11.6484L12.0592 7.71091C12.1108 7.65867 12.1518 7.59663 12.1798 7.52835C12.2077 7.46006 12.2221 7.38686 12.2221 7.31294C12.2221 7.23902 12.2077 7.16582 12.1798 7.09754Z" fill="white"/>
</svg>
