<svg width="48" height="48" viewBox="0 0 48 48" fill="none" xmlns="http://www.w3.org/2000/svg">
<path fill-rule="evenodd" clip-rule="evenodd" d="M16.2929 16.2929C16.6834 15.9024 17.3166 15.9024 17.7071 16.2929L24.0001 22.5858L30.2929 16.293C30.6834 15.9025 31.3166 15.9025 31.7071 16.293C32.0976 16.6835 32.0976 17.3167 31.7071 17.7072L25.4143 24.0001L31.7071 30.2929C32.0976 30.6834 32.0976 31.3166 31.7071 31.7071C31.3166 32.0976 30.6834 32.0976 30.2929 31.7071L24.0001 25.4143L17.7071 31.7072C17.3166 32.0977 16.6834 32.0977 16.2929 31.7072C15.9024 31.3167 15.9024 30.6835 16.2929 30.293L22.5858 24.0001L16.2929 17.7071C15.9024 17.3166 15.9024 16.6834 16.2929 16.2929Z" fill="#757575"/>
</svg>
