<svg width="20" height="21" viewBox="0 0 20 21" fill="none" xmlns="http://www.w3.org/2000/svg">
<rect x="0.5" y="1.16675" width="19" height="19" rx="3.5" fill="#424242" fill-opacity="0.2"/>
<rect x="0.5" y="1.16675" width="19" height="19" rx="3.5" stroke="white"/>
<path fill-rule="evenodd" clip-rule="evenodd" d="M6.16737 6.83412C6.39052 6.61096 6.75233 6.61096 6.97549 6.83412L10 9.85863L13.0245 6.83412C13.2477 6.61096 13.6095 6.61096 13.8326 6.83412C14.0558 7.05727 14.0558 7.41908 13.8326 7.64224L10.8081 10.6667L13.8326 13.6913C14.0558 13.9144 14.0558 14.2762 13.8326 14.4994C13.6095 14.7225 13.2477 14.7225 13.0245 14.4994L10 11.4749L6.97549 14.4994C6.75233 14.7225 6.39052 14.7225 6.16737 14.4994C5.94421 14.2762 5.94421 13.9144 6.16737 13.6913L9.19188 10.6667L6.16737 7.64224C5.94421 7.41908 5.94421 7.05727 6.16737 6.83412Z" fill="white"/>
</svg>
