<svg width="18" height="18" viewBox="0 0 18 18" fill="none" xmlns="http://www.w3.org/2000/svg">
<rect x="0.5" y="0.5" width="17" height="17" rx="8.5" fill="white"/>
<rect x="0.5" y="0.5" width="17" height="17" rx="8.5" stroke="#424242"/>
<path fill-rule="evenodd" clip-rule="evenodd" d="M5.40691 5.40691C5.61612 5.1977 5.95531 5.1977 6.16452 5.40691L9 8.24239L11.8355 5.40691C12.0447 5.1977 12.3839 5.1977 12.5931 5.40691C12.8023 5.61612 12.8023 5.95531 12.5931 6.16452L9.75761 9L12.5931 11.8355C12.8023 12.0447 12.8023 12.3839 12.5931 12.5931C12.3839 12.8023 12.0447 12.8023 11.8355 12.5931L9 9.75761L6.16452 12.5931C5.95531 12.8023 5.61612 12.8023 5.40691 12.5931C5.1977 12.3839 5.1977 12.0447 5.40691 11.8355L8.24239 9L5.40691 6.16452C5.1977 5.95531 5.1977 5.61612 5.40691 5.40691Z" fill="#424242"/>
</svg>
