<svg width="18" height="18" viewBox="0 0 18 18" fill="none" xmlns="http://www.w3.org/2000/svg">
<path fill-rule="evenodd" clip-rule="evenodd" d="M7.95457 3.75C7.45316 3.75 6.98491 4.00053 6.70668 4.41767L6.45416 4.79626C5.95255 5.54832 5.10834 6 4.20435 6C3.5392 6 3 6.5392 3 7.20435V12.75C3 13.5784 3.67157 14.25 4.5 14.25H13.5C14.3284 14.25 15 13.5784 15 12.75V7.20416C15 6.53912 14.4609 6 13.7958 6C12.8917 6 12.0474 5.54813 11.5458 4.79584L11.2939 4.41795C11.0157 4.00065 10.5474 3.75 10.0458 3.75H7.95457ZM5.45879 3.58534C6.01525 2.75107 6.95175 2.25 7.95457 2.25H10.0458C11.0489 2.25 11.9856 2.7513 12.542 3.5859L12.7939 3.96379C13.0172 4.29878 13.3932 4.5 13.7958 4.5C15.2893 4.5 16.5 5.7107 16.5 7.20416V12.75C16.5 14.4069 15.1569 15.75 13.5 15.75H4.5C2.84315 15.75 1.5 14.4069 1.5 12.75V7.20435C1.5 5.71078 2.71078 4.5 4.20435 4.5C4.60693 4.5 4.98289 4.29885 5.20628 3.96393L5.45879 3.58534ZM9.00073 8.25C8.17231 8.25 7.50073 8.92157 7.50073 9.75C7.50073 10.5784 8.17231 11.25 9.00073 11.25C9.82916 11.25 10.5007 10.5784 10.5007 9.75C10.5007 8.92157 9.82916 8.25 9.00073 8.25ZM6.00073 9.75C6.00073 8.09315 7.34388 6.75 9.00073 6.75C10.6576 6.75 12.0007 8.09315 12.0007 9.75C12.0007 11.4069 10.6576 12.75 9.00073 12.75C7.34388 12.75 6.00073 11.4069 6.00073 9.75Z" fill="#212121"/>
</svg>
