<svg width="24" height="24" viewBox="0 0 24 24" fill="none" xmlns="http://www.w3.org/2000/svg">
<g clip-path="url(#clip0_1375_1369)">
<path fill-rule="evenodd" clip-rule="evenodd" d="M20 8H4V22H20V8ZM4 6C2.89543 6 2 6.89543 2 8V22C2 23.1046 2.89543 24 4 24H20C21.1046 24 22 23.1046 22 22V8C22 6.89543 21.1046 6 20 6H4Z" fill="#212121"/>
<path fill-rule="evenodd" clip-rule="evenodd" d="M12 2C10.3431 2 9 3.34315 9 5V9C9 9.55229 8.55228 10 8 10C7.44772 10 7 9.55229 7 9V5C7 2.23858 9.23858 0 12 0C14.7614 0 17 2.23858 17 5V9C17 9.55229 16.5523 10 16 10C15.4477 10 15 9.55229 15 9V5C15 3.34315 13.6569 2 12 2Z" fill="#212121"/>
<path fill-rule="evenodd" clip-rule="evenodd" d="M14.2929 12.2929C14.6834 11.9024 15.3166 11.9024 15.7071 12.2929C16.0976 12.6834 16.0976 13.3166 15.7071 13.7071L11.7071 17.7071C11.3166 18.0976 10.6834 18.0976 10.2929 17.7071L8.29289 15.7071C7.90237 15.3166 7.90237 14.6834 8.29289 14.2929C8.68342 13.9024 9.31658 13.9024 9.70711 14.2929L11 15.5858L14.2929 12.2929Z" fill="#212121"/>
</g>
<defs>
<clipPath id="clip0_1375_1369">
<rect width="24" height="24" fill="white"/>
</clipPath>
</defs>
</svg>
