<svg width="24" height="24" viewBox="0 0 24 24" fill="none" xmlns="http://www.w3.org/2000/svg">
<path d="M22.012 6.94395C21.8392 6.64456 21.5918 6.39508 21.2938 6.21982C20.9959 6.04456 20.6576 5.94951 20.312 5.94395H7.51201L6.93201 3.68395C6.87341 3.46578 6.74267 3.27389 6.56108 3.13952C6.3795 3.00515 6.15777 2.93621 5.93201 2.94395H3.93201C3.66679 2.94395 3.41244 3.0493 3.2249 3.23684C3.03736 3.42438 2.93201 3.67873 2.93201 3.94395C2.93201 4.20916 3.03736 4.46352 3.2249 4.65105C3.41244 4.83859 3.66679 4.94395 3.93201 4.94395H5.17201L7.93201 15.2039C7.99061 15.4221 8.12135 15.614 8.30293 15.7484C8.48451 15.8827 8.70624 15.9517 8.93201 15.9439H17.932C18.1167 15.9434 18.2976 15.8917 18.4547 15.7946C18.6118 15.6975 18.7389 15.5589 18.822 15.3939L22.102 8.83395C22.2442 8.53596 22.3104 8.20742 22.2947 7.87763C22.2789 7.54784 22.1818 7.22707 22.012 6.94395ZM17.312 13.9439H9.69201L8.06201 7.94395H20.312L17.312 13.9439Z" fill="black"/>
<path d="M8.43201 20.9434C9.26043 20.9434 9.93201 20.2718 9.93201 19.4434C9.93201 18.6149 9.26043 17.9434 8.43201 17.9434C7.60358 17.9434 6.93201 18.6149 6.93201 19.4434C6.93201 20.2718 7.60358 20.9434 8.43201 20.9434Z" fill="black"/>
<path d="M18.432 20.9434C19.2604 20.9434 19.932 20.2718 19.932 19.4434C19.932 18.6149 19.2604 17.9434 18.432 17.9434C17.6036 17.9434 16.932 18.6149 16.932 19.4434C16.932 20.2718 17.6036 20.9434 18.432 20.9434Z" fill="black"/>
</svg>
