<svg width="24" height="24" viewBox="0 0 24 24" fill="none" xmlns="http://www.w3.org/2000/svg">
<path fill-rule="evenodd" clip-rule="evenodd" d="M12.087 5.01894C15.4643 5.28239 18.2 8.26314 18.2 12C18.2 15.7369 15.4643 18.7176 12.087 18.9811C11.8702 18.9905 11.6602 18.9959 11.4589 18.9984C7.92448 18.919 5 15.8637 5 12C5 8.13634 7.92448 5.08097 11.4589 5.00158C11.6602 5.00405 11.8702 5.00954 12.087 5.01894ZM19.0729 7.5456C19.7913 8.8638 20.2 10.3866 20.2 12C20.2 13.6134 19.7913 15.1362 19.0729 16.4544C19.2735 16.2358 19.4576 15.9995 19.6231 15.744C20.2094 14.8386 20.6 13.6327 20.6 12C20.6 10.3673 20.2094 9.16145 19.6231 8.25603C19.4576 8.00053 19.2735 7.76419 19.0729 7.5456ZM11.4502 20.9987C11.5 20.9996 11.5499 21 11.6 21C11.8066 21 12.0114 20.9924 12.2141 20.9776C13.9387 20.8999 16.1862 20.59 18.1526 19.5917C19.3586 18.9794 20.4826 18.0962 21.3019 16.831C22.1239 15.5614 22.6 13.9673 22.6 12C22.6 10.0327 22.1239 8.43855 21.3019 7.16897C20.4826 5.90378 19.3586 5.02061 18.1526 4.40833C16.1862 3.41001 13.9387 3.10011 12.2141 3.02244C12.0114 3.00757 11.8066 3 11.6 3C11.5499 3 11.5 3.00044 11.4502 3.00133C11.3647 3.00042 11.2813 3 11.2 3V3.00949C6.59297 3.22872 3 7.216 3 12C3 16.784 6.59297 20.7713 11.2 20.9905V21C11.2813 21 11.3647 20.9996 11.4502 20.9987ZM7.79961 11.9998C7.79961 9.74114 9.53086 7.7998 11.7996 7.7998H11.8015C12.6857 7.80147 13.5427 8.10616 14.2295 8.66308C14.6584 9.01094 14.7242 9.64068 14.3763 10.0696C14.0285 10.4986 13.3987 10.5644 12.9698 10.2165C12.6385 9.94789 12.2252 9.80082 11.7987 9.7998C10.7542 9.80035 9.79961 10.7228 9.79961 11.9998C9.79961 13.2771 10.7548 14.1998 11.7996 14.1998C12.2334 14.1998 12.639 14.0479 12.9746 13.7792C13.4057 13.434 14.0351 13.5037 14.3802 13.9348C14.7254 14.3659 14.6557 14.9953 14.2246 15.3404C13.5571 15.8749 12.7162 16.1998 11.7996 16.1998C9.53086 16.1998 7.79961 14.2585 7.79961 11.9998Z" fill="#212121"/>
</svg>
