<svg width="60" height="60" viewBox="0 0 60 60" fill="none" xmlns="http://www.w3.org/2000/svg">
<circle cx="30" cy="30" r="30" fill="url(#paint0_linear_780_66595)"/>
<g clip-path="url(#clip0_780_66595)">
<path d="M28.1324 18.5284C28.1324 17.4968 28.9695 16.6631 29.9977 16.6631C31.0259 16.6631 31.8631 17.5002 31.8631 18.5284H28.1289H28.1324Z" fill="white"/>
<path d="M30.9596 11.2925H29.0352V17.5937H30.9596V11.2925Z" fill="white"/>
<path d="M29.9977 13.5852C31.2639 13.5852 32.2903 12.5588 32.2903 11.2926C32.2903 10.0264 31.2639 9 29.9977 9C28.7315 9 27.7051 10.0264 27.7051 11.2926C27.7051 12.5588 28.7315 13.5852 29.9977 13.5852Z" fill="white"/>
<path d="M29.9984 48.2002C25.7988 48.2002 21.7971 47.5784 18.7264 46.446C11.7687 43.8824 10.7266 39.3215 10.7266 36.8309C10.7266 26.205 19.369 17.5625 29.9949 17.5625C40.6209 17.5625 49.2633 26.205 49.2633 36.8309C49.2633 39.3215 48.2247 43.8824 41.2635 46.446C38.1928 47.5749 34.1911 48.2002 29.9915 48.2002H29.9984ZM29.9984 19.4904C20.4354 19.4904 12.6544 27.2714 12.6544 36.8343C12.6544 38.8248 13.5298 42.4825 19.3933 44.6431C22.2556 45.6957 26.0211 46.2758 29.9984 46.2758C33.9758 46.2758 37.7412 45.6957 40.6035 44.6431C46.467 42.486 47.3424 38.8248 47.3424 36.8343C47.3424 27.2714 39.5614 19.4904 29.9984 19.4904Z" fill="white"/>
<path d="M29.998 23.3428C22.547 23.3428 16.5098 29.3835 16.5098 36.831C16.5098 44.2785 43.4862 44.282 43.4862 36.831C43.4862 29.38 37.4455 23.3428 29.998 23.3428ZM23.1931 31.2488C23.1931 29.3869 24.1136 27.8794 25.246 27.8794C26.3784 27.8794 27.2989 29.3904 27.2989 31.2488C27.2989 33.1072 26.3784 34.6183 25.246 34.6183C24.1136 34.6183 23.1931 33.1072 23.1931 31.2488ZM33.892 38.2378C32.9819 39.471 31.5264 40.2074 29.998 40.2074C28.4696 40.2074 27.0106 39.471 26.104 38.2378C25.7879 37.8106 25.8782 37.2061 26.309 36.89C26.7362 36.5739 27.3406 36.6677 27.6567 37.095C28.2125 37.8488 29.067 38.283 30.0015 38.283C30.9359 38.283 31.7904 37.8488 32.3462 37.095C32.6623 36.6677 33.2632 36.5739 33.694 36.89C34.1212 37.2061 34.215 37.8071 33.8989 38.2378H33.892ZM34.7499 34.6217C33.6175 34.6217 32.697 33.1107 32.697 31.2523C32.697 29.3939 33.6175 27.8828 34.7499 27.8828C35.8824 27.8828 36.8029 29.3939 36.8029 31.2523C36.8029 33.1107 35.8824 34.6217 34.7499 34.6217Z" fill="white"/>
<path d="M11.5293 38.6826H10.31C9.58752 38.6826 9.00047 38.0956 9.00047 37.373V34.0349C9.00047 33.3123 9.58752 32.7253 10.31 32.7253H11.5293V38.6826Z" fill="white"/>
<path d="M48.4707 32.7217H49.69C50.4125 32.7217 50.9995 33.3087 50.9995 34.0312V37.3694C50.9995 38.092 50.4125 38.679 49.69 38.679H48.4707V32.7217Z" fill="white"/>
</g>
<defs>
<linearGradient id="paint0_linear_780_66595" x1="8.76923" y1="52.1538" x2="50.7692" y2="7.38461" gradientUnits="userSpaceOnUse">
<stop stop-color="#382FC4"/>
<stop offset="0.9997" stop-color="#B22FD6"/>
<stop offset="0.9998" stop-color="#D4D4D8" stop-opacity="0.0309089"/>
<stop offset="0.9999" stop-color="#D6D6D9" stop-opacity="0.015625"/>
<stop offset="1" stop-color="#D9D9D9" stop-opacity="0"/>
<stop offset="1" stop-color="#B22FD6"/>
<stop offset="1" stop-color="#B22FD6"/>
<stop offset="1" stop-color="#B22FD6"/>
</linearGradient>
<clipPath id="clip0_780_66595">
<rect width="42" height="39.2002" fill="white" transform="translate(9 9)"/>
</clipPath>
</defs>
</svg>
