<svg width="12" height="12" viewBox="0 0 12 12" fill="none" xmlns="http://www.w3.org/2000/svg">
<path d="M1 4.88889V2.44444C1 2.32657 1.05268 2.21352 1.14645 2.13017C1.24021 2.04683 1.36739 2 1.5 2H10.5C10.6326 2 10.7598 2.04683 10.8536 2.13017C10.9473 2.21352 11 2.32657 11 2.44444V4.88889C10.6685 4.88889 10.3505 5.00595 10.1161 5.21433C9.88169 5.4227 9.75 5.70532 9.75 6C9.75 6.29468 9.88169 6.5773 10.1161 6.78567C10.3505 6.99405 10.6685 7.11111 11 7.11111V9.55556C11 9.67343 10.9473 9.78648 10.8536 9.86983C10.7598 9.95318 10.6326 10 10.5 10H1.5C1.36739 10 1.24021 9.95318 1.14645 9.86983C1.05268 9.78648 1 9.67343 1 9.55556V7.11111C1.33152 7.11111 1.64946 6.99405 1.88388 6.78567C2.1183 6.5773 2.25 6.29468 2.25 6C2.25 5.70532 2.1183 5.4227 1.88388 5.21433C1.64946 5.00595 1.33152 4.88889 1 4.88889Z" fill="#74CDFF"/>
</svg>
