<svg width="16" height="16" viewBox="0 0 16 16" fill="none" xmlns="http://www.w3.org/2000/svg">
<g clip-path="url(#clip0_141_10597)">
<path d="M9.77756 14.6662V8.66623L14.8753 3.55512C14.9511 3.47936 15.011 3.38922 15.0514 3.29C15.0919 3.19078 15.1121 3.08448 15.1109 2.97734V2.22179C15.1109 2.10391 15.0641 1.99087 14.9807 1.90752C14.8974 1.82417 14.7843 1.77734 14.6665 1.77734H1.33312C1.21524 1.77734 1.1022 1.82417 1.01885 1.90752C0.935497 1.99087 0.888672 2.10391 0.888672 2.22179V2.96401C0.888755 3.06898 0.909611 3.1729 0.950039 3.26977C0.990467 3.36665 1.04967 3.45456 1.12423 3.52846L6.22201 8.70179V13.2351L9.77756 14.6662Z" fill="#41B5C6"/>
<path d="M14.8798 1.77734H1.10202C1.04386 1.78183 0.989542 1.80815 0.949974 1.85101C0.910407 1.89388 0.888513 1.95012 0.888686 2.00845V2.7729C0.888152 2.85125 0.903201 2.92893 0.932957 3.00141C0.962714 3.0739 1.00659 3.13974 1.06202 3.19512L6.39535 8.52845V12.9729L9.61757 14.5773V8.51957L14.9509 3.18623C15.0529 3.07617 15.11 2.93187 15.1109 2.78179V2.00845C15.1109 1.94716 15.0866 1.88838 15.0432 1.84503C14.9999 1.80169 14.9411 1.77734 14.8798 1.77734Z" fill="#41B5C6"/>
</g>
<defs>
<clipPath id="clip0_141_10597">
<rect width="16" height="16" fill="white"/>
</clipPath>
</defs>
</svg>
