<svg width="24" height="24" viewBox="0 0 24 24" fill="none" xmlns="http://www.w3.org/2000/svg">
<path d="M12 6.5V9M12 6.5C12 6.00555 12.1466 5.5222 12.4213 5.11108C12.696 4.69995 13.0865 4.37952 13.5433 4.1903C14.0001 4.00108 14.5028 3.95157 14.9877 4.04804C15.4727 4.1445 15.9181 4.3826 16.2678 4.73223C16.6174 5.08187 16.8555 5.52732 16.952 6.01228C17.0484 6.49723 16.9989 6.99989 16.8097 7.45671C16.6205 7.91352 16.3 8.30397 15.8889 8.57867C15.4778 8.85338 14.9945 9 14.5 9M12 6.5C12 6.00555 11.8534 5.5222 11.5787 5.11108C11.304 4.69995 10.9135 4.37952 10.4567 4.1903C9.99989 4.00108 9.49723 3.95157 9.01227 4.04804C8.52732 4.1445 8.08186 4.3826 7.73223 4.73223C7.3826 5.08187 7.1445 5.52732 7.04804 6.01228C6.95157 6.49723 7.00108 6.99989 7.1903 7.45671C7.37952 7.91352 7.69995 8.30397 8.11107 8.57867C8.5222 8.85338 9.00555 9 9.5 9M12 9H14.5M12 9H9.5M12 9V14M14.5 9H16.8C17.92 9 18.48 9 18.907 9.218C19.284 9.41 19.59 9.715 19.782 10.092C20 10.519 20 11.079 20 12.197V14M9.5 9H7.2C6.08 9 5.52 9 5.092 9.218C4.71565 9.40969 4.40969 9.71565 4.218 10.092C4 10.52 4 11.08 4 12.2V14M12 14H4M12 14V19M12 14H20M20 14V15.804C20 16.922 20 17.48 19.782 17.908C19.59 18.284 19.284 18.59 18.907 18.782C18.48 19 17.921 19 16.803 19H12M4 14V15.8C4 16.92 4 17.48 4.218 17.908C4.40974 18.2843 4.71569 18.5903 5.092 18.782C5.519 19 6.079 19 7.197 19H12" stroke="#FF3E66" stroke-width="2" stroke-linecap="round" stroke-linejoin="round"/>
</svg>
