<svg width="25" height="24" viewBox="0 0 25 24" fill="none" xmlns="http://www.w3.org/2000/svg">
<path d="M3.20117 19V10.562C3.20117 9.90934 3.5196 9.29776 4.05425 8.9235L11.0542 4.0235C11.7429 3.54146 12.6595 3.54146 13.3481 4.0235L20.3481 8.9235C20.8827 9.29776 21.2012 9.90934 21.2012 10.562V19C21.2012 20.1046 20.3057 21 19.2012 21H17.2012C16.0966 21 15.2012 20.1046 15.2012 19V16C15.2012 14.3431 13.858 13 12.2012 13C10.5443 13 9.20117 14.3431 9.20117 16V19C9.20117 20.1046 8.30574 21 7.20117 21H5.20117C4.0966 21 3.20117 20.1046 3.20117 19Z" stroke="#212121" stroke-width="2"/>
</svg>
