<svg width="14" height="14" viewBox="0 0 14 14" fill="none" xmlns="http://www.w3.org/2000/svg">
<path fill-rule="evenodd" clip-rule="evenodd" d="M11 2H3C1.89543 2 1 2.89543 1 4V12L1.6 11.2C2.16656 10.4446 3.05573 10 4 10H11C12.1046 10 13 9.10457 13 8V4C13 2.89543 12.1046 2 11 2ZM3 1C1.34315 1 0 2.34315 0 4V12C0 12.961 1.22339 13.3688 1.8 12.6L2.4 11.8C2.77771 11.2964 3.37049 11 4 11H11C12.6569 11 14 9.65685 14 8V4C14 2.34315 12.6569 1 11 1H3Z" fill="#BDBDBD"/>
<path d="M3 6C3 5.44772 3.44772 5 4 5C4.55228 5 5 5.44772 5 6C5 6.55228 4.55228 7 4 7C3.44772 7 3 6.55228 3 6Z" fill="#BDBDBD"/>
<path d="M6 6C6 5.44772 6.44772 5 7 5C7.55228 5 8 5.44772 8 6C8 6.55228 7.55228 7 7 7C6.44772 7 6 6.55228 6 6Z" fill="#BDBDBD"/>
<path d="M9 6C9 5.44772 9.44772 5 10 5C10.5523 5 11 5.44772 11 6C11 6.55228 10.5523 7 10 7C9.44772 7 9 6.55228 9 6Z" fill="#BDBDBD"/>
</svg>
