<svg width="14" height="18" viewBox="0 0 14 18" fill="none" xmlns="http://www.w3.org/2000/svg">
<g clip-path="url(#clip0_4421_53172)">
<path fill-rule="evenodd" clip-rule="evenodd" d="M10.5123 11.7998H12.5123V6.7998H10.5123V11.7998ZM13.5123 12.7998V5.7998H9.51232V12.7998H13.5123Z" fill="#9E9E9E"/>
<path fill-rule="evenodd" clip-rule="evenodd" d="M9.51232 12.5637V6.7998H2.64377C2.42053 6.7998 2.22434 6.94779 2.16301 7.16244L1.02015 11.1624C0.928891 11.4819 1.16872 11.7998 1.50091 11.7998H4.84842C6.07302 11.7998 7.01005 12.8904 6.82561 14.101L6.55958 15.8471C6.52632 16.0654 6.64017 16.2797 6.83969 16.3743L6.98519 16.4432C7.17618 16.5338 7.40347 16.4944 7.55292 16.345L7.63309 16.2648L8.3402 16.9719L8.26003 17.0521C7.81166 17.5005 7.12979 17.6185 6.55682 17.3468L6.41132 17.2779C5.81278 16.9941 5.47121 16.3514 5.57098 15.6965L5.83701 13.9504C5.92924 13.3451 5.46072 12.7998 4.84842 12.7998H1.50091C0.504344 12.7998 -0.215152 11.8459 0.058627 10.8877L1.20148 6.88772C1.38547 6.24377 1.97405 5.7998 2.64377 5.7998H10.5123V12.7998L8.62118 16.5821C8.54908 16.7263 8.4542 16.8579 8.3402 16.9719L7.63309 16.2648C7.67109 16.2268 7.70272 16.1829 7.72675 16.1349L9.51232 12.5637Z" fill="#9E9E9E"/>
</g>
<defs>
<clipPath id="clip0_4421_53172">
<rect width="14" height="17" fill="white" transform="translate(0 0.5)"/>
</clipPath>
</defs>
</svg>
