<svg width="20" height="21" viewBox="0 0 20 21" fill="none" xmlns="http://www.w3.org/2000/svg">
<rect y="0.0957031" width="20" height="20" rx="10" fill="#723DE3"/>
<path d="M14.7948 9.60404C14.7796 9.53991 14.7489 9.48051 14.7053 9.43112C14.6616 9.38174 14.6065 9.34389 14.5447 9.32094L11.6633 8.24008L12.3965 4.57236C12.4131 4.48714 12.4015 4.39883 12.3635 4.32077C12.3256 4.2427 12.2632 4.1791 12.1859 4.13957C12.1086 4.10005 12.0206 4.08674 11.935 4.10165C11.8495 4.11656 11.7711 4.15889 11.7118 4.22224L6.1099 10.2242C6.0644 10.2722 6.03149 10.3307 6.0141 10.3944C5.99671 10.4582 5.99539 10.5253 6.01025 10.5897C6.02511 10.6541 6.05569 10.7138 6.09926 10.7635C6.14284 10.8132 6.19804 10.8513 6.25995 10.8745L9.14241 11.9553L8.41117 15.619C8.39456 15.7043 8.40613 15.7926 8.44411 15.8706C8.4821 15.9487 8.54445 16.0123 8.62175 16.0518C8.69905 16.0914 8.78711 16.1047 8.87264 16.0898C8.95817 16.0748 9.03653 16.0325 9.09589 15.9692L14.6978 9.96716C14.7424 9.91921 14.7747 9.86102 14.7916 9.7977C14.8085 9.73439 14.8096 9.66788 14.7948 9.60404ZM9.47202 14.3971L9.99569 11.7773C10.0144 11.6843 9.99959 11.5878 9.95379 11.5048C9.90799 11.4218 9.83421 11.3578 9.74561 11.3241L7.10273 10.3313L11.3351 5.79677L10.812 8.41664C10.7932 8.50956 10.8081 8.60611 10.8539 8.6891C10.8997 8.77209 10.9734 8.83612 11.0621 8.86979L13.7029 9.86012L9.47202 14.3971Z" fill="white"/>
</svg>
