<svg width="18" height="18" viewBox="0 0 18 18" fill="none" xmlns="http://www.w3.org/2000/svg">
<g clip-path="url(#clip0_2069_4808)">
<path d="M9.75 11.25C9.75 12.0825 9.0825 12.75 8.25 12.75C7.85218 12.75 7.47064 12.592 7.18934 12.3107C6.90804 12.0294 6.75 11.6478 6.75 11.25C6.75 10.4175 7.4175 9.75 8.25 9.75C8.64782 9.75 9.02936 9.90804 9.31066 10.1893C9.59196 10.4706 9.75 10.8522 9.75 11.25ZM9.0675 14.25C9.1575 14.79 9.345 15.2925 9.6075 15.75H3.75C3.35218 15.75 2.97064 15.592 2.68934 15.3107C2.40804 15.0294 2.25 14.6478 2.25 14.25V8.25C2.25 7.4175 2.9175 6.75 3.75 6.75H4.5V5.25C4.5 3.18 6.18 1.5 8.25 1.5C10.32 1.5 12 3.18 12 5.25V6.75H12.75C13.1478 6.75 13.5294 6.90804 13.8107 7.18934C14.092 7.47064 14.25 7.85218 14.25 8.25V10.5675C14.0025 10.53 13.755 10.5 13.5 10.5C13.245 10.5 12.9975 10.53 12.75 10.5675V8.25H3.75V14.25H9.0675ZM6 6.75H10.5V5.25C10.5 4.005 9.495 3 8.25 3C7.005 3 6 4.005 6 5.25V6.75Z" fill="#212121"/>
<path fill-rule="evenodd" clip-rule="evenodd" d="M15.2197 11.4697C15.5126 11.1768 15.9874 11.1768 16.2803 11.4697C16.5732 11.7626 16.5732 12.2374 16.2803 12.5303L13.2803 15.5303C12.9874 15.8232 12.5126 15.8232 12.2197 15.5303L9.96967 13.2803C9.67678 12.9874 9.67678 12.5126 9.96967 12.2197C10.2626 11.9268 10.7374 11.9268 11.0303 12.2197L12.75 13.9393L15.2197 11.4697Z" fill="#212121"/>
</g>
<defs>
<clipPath id="clip0_2069_4808">
<rect width="18" height="18" fill="white"/>
</clipPath>
</defs>
</svg>
