<svg width="29" height="29" viewBox="0 0 29 29" fill="none" xmlns="http://www.w3.org/2000/svg">
<path d="M23.2467 9.82041L14.5002 18.3464L5.75369 9.82041C5.59742 9.66777 5.38764 9.58232 5.16919 9.58232C4.95075 9.58232 4.74097 9.66777 4.58469 9.82041C4.50903 9.89455 4.44892 9.98304 4.40788 10.0807C4.36684 10.1784 4.3457 10.2832 4.3457 10.3892C4.3457 10.4951 4.36684 10.6 4.40788 10.6976C4.44892 10.7953 4.50903 10.8838 4.58469 10.9579L13.8894 20.0299C14.0528 20.1892 14.272 20.2783 14.5002 20.2783C14.7284 20.2783 14.9475 20.1892 15.1109 20.0299L24.4157 10.9597C24.4919 10.8855 24.5525 10.7968 24.5938 10.6988C24.6352 10.6008 24.6565 10.4955 24.6565 10.3892C24.6565 10.2828 24.6352 10.1775 24.5938 10.0795C24.5525 9.98156 24.4919 9.89285 24.4157 9.81866C24.2594 9.66602 24.0496 9.58057 23.8312 9.58057C23.6127 9.58057 23.403 9.66602 23.2467 9.81866V9.82041Z" fill="black"/>
</svg>
