<svg width="18" height="18" viewBox="0 0 18 18" fill="none" xmlns="http://www.w3.org/2000/svg">
<g clip-path="url(#clip0_1876_80963)">
<path fill-rule="evenodd" clip-rule="evenodd" d="M8.78033 3.96967C9.07322 4.26256 9.07322 4.73744 8.78033 5.03033L4.81066 9L8.78033 12.9697C9.07322 13.2626 9.07322 13.7374 8.78033 14.0303C8.48744 14.3232 8.01256 14.3232 7.71967 14.0303L3.21967 9.53033C2.92678 9.23744 2.92678 8.76256 3.21967 8.46967L7.71967 3.96967C8.01256 3.67678 8.48744 3.67678 8.78033 3.96967Z" fill="#212121"/>
<path fill-rule="evenodd" clip-rule="evenodd" d="M14.7803 3.96967C15.0732 4.26256 15.0732 4.73744 14.7803 5.03033L10.8107 9L14.7803 12.9697C15.0732 13.2626 15.0732 13.7374 14.7803 14.0303C14.4874 14.3232 14.0126 14.3232 13.7197 14.0303L9.21967 9.53033C8.92678 9.23744 8.92678 8.76256 9.21967 8.46967L13.7197 3.96967C14.0126 3.67678 14.4874 3.67678 14.7803 3.96967Z" fill="#212121"/>
</g>
<defs>
<clipPath id="clip0_1876_80963">
<rect width="18" height="18" fill="white"/>
</clipPath>
</defs>
</svg>
