<svg width="20" height="20" viewBox="0 0 20 20" fill="none" xmlns="http://www.w3.org/2000/svg">
<path d="M13.2225 12.1107L17.4998 6.96419V19.4642H2.49984V6.96419L6.84554 12.1009L9.99984 6.96419L13.2225 12.1107ZM3.74984 4.46419C3.74984 4.63997 3.71728 4.80273 3.65218 4.95247C3.58708 5.10221 3.49919 5.23242 3.38851 5.3431C3.27783 5.45378 3.14437 5.54492 2.98812 5.61654C2.83187 5.68815 2.66911 5.7207 2.49984 5.71419C2.32406 5.71419 2.1613 5.68164 2.01156 5.61654C1.86182 5.55143 1.73161 5.46354 1.62093 5.35286C1.51025 5.24219 1.41911 5.10872 1.34749 4.95247C1.27588 4.79622 1.24333 4.63346 1.24984 4.46419C1.24984 4.28841 1.28239 4.12565 1.34749 3.97591C1.4126 3.82617 1.50049 3.69596 1.61117 3.58529C1.72184 3.47461 1.85531 3.38346 2.01156 3.31185C2.16781 3.24023 2.33057 3.20768 2.49984 3.21419C2.67562 3.21419 2.83838 3.24674 2.98812 3.31185C3.13786 3.37695 3.26807 3.46484 3.37874 3.57552C3.48942 3.6862 3.58057 3.81966 3.65218 3.97591C3.7238 4.13216 3.75635 4.29492 3.74984 4.46419ZM9.99984 5.71419C9.82405 5.71419 9.66129 5.68164 9.51155 5.61654C9.36182 5.55143 9.23161 5.46354 9.12093 5.35286C9.01025 5.24219 8.91911 5.10872 8.84749 4.95247C8.77588 4.79622 8.74333 4.63346 8.74984 4.46419C8.74984 4.28841 8.78239 4.12565 8.84749 3.97591C8.9126 3.82617 9.00049 3.69596 9.11116 3.58529C9.22184 3.47461 9.3553 3.38346 9.51155 3.31185C9.6678 3.24023 9.83057 3.20768 9.99984 3.21419C10.1756 3.21419 10.3384 3.24674 10.4881 3.31185C10.6379 3.37695 10.7681 3.46484 10.8787 3.57552C10.9894 3.6862 11.0806 3.81966 11.1522 3.97591C11.2238 4.13216 11.2563 4.29492 11.2498 4.46419C11.2498 4.63997 11.2173 4.80273 11.1522 4.95247C11.0871 5.10221 10.9992 5.23242 10.8885 5.3431C10.7778 5.45378 10.6444 5.54492 10.4881 5.61654C10.3319 5.68815 10.1691 5.7207 9.99984 5.71419ZM17.4998 3.21419C17.6756 3.21419 17.8384 3.24674 17.9881 3.31185C18.1379 3.37695 18.2681 3.46484 18.3787 3.57552C18.4894 3.6862 18.5806 3.81966 18.6522 3.97591C18.7238 4.13216 18.7563 4.29492 18.7498 4.46419C18.7498 4.63997 18.7173 4.80273 18.6522 4.95247C18.5871 5.10221 18.4992 5.23242 18.3885 5.3431C18.2778 5.45378 18.1444 5.54492 17.9881 5.61654C17.8319 5.68815 17.6691 5.7207 17.4998 5.71419C17.3241 5.71419 17.1613 5.68164 17.0116 5.61654C16.8618 5.55143 16.7316 5.46354 16.6209 5.35286C16.5103 5.24219 16.4191 5.10872 16.3475 4.95247C16.2759 4.79622 16.2433 4.63346 16.2498 4.46419C16.2498 4.28841 16.2824 4.12565 16.3475 3.97591C16.4126 3.82617 16.5005 3.69596 16.6112 3.58529C16.7218 3.47461 16.8553 3.38346 17.0116 3.31185C17.1678 3.24023 17.3306 3.20768 17.4998 3.21419Z" fill="#FF3E66"/>
</svg>
