<svg width="18" height="18" viewBox="0 0 18 18" fill="none" xmlns="http://www.w3.org/2000/svg">
<path fill-rule="evenodd" clip-rule="evenodd" d="M1.5 5.25C1.5 3.59315 2.84315 2.25 4.5 2.25H13.5C15.1569 2.25 16.5 3.59315 16.5 5.25V11.25C16.5 12.9069 15.1569 14.25 13.5 14.25H6.18198C5.78416 14.25 5.40263 14.408 5.12132 14.6893L4.06066 15.75C3.11571 16.695 1.5 16.0257 1.5 14.6893V5.25ZM4.5 3.75C3.67157 3.75 3 4.42157 3 5.25V14.6893L4.06066 13.6287C4.62327 13.0661 5.38633 12.75 6.18198 12.75H13.5C14.3284 12.75 15 12.0784 15 11.25V5.25C15 4.42157 14.3284 3.75 13.5 3.75H4.5ZM5.25 7.5C5.25 7.08579 5.58579 6.75 6 6.75H9C9.41421 6.75 9.75 7.08579 9.75 7.5C9.75 7.91421 9.41421 8.25 9 8.25H6C5.58579 8.25 5.25 7.91421 5.25 7.5ZM5.25 9.75C5.25 9.33579 5.58579 9 6 9H11.625C12.0392 9 12.375 9.33579 12.375 9.75C12.375 10.1642 12.0392 10.5 11.625 10.5H6C5.58579 10.5 5.25 10.1642 5.25 9.75Z" fill="#212121"/>
</svg>
