<svg width="32" height="32" viewBox="0 0 32 32" fill="none" xmlns="http://www.w3.org/2000/svg">
<rect x="0.5" y="0.5" width="31" height="31" rx="15.5" stroke="#EEEEEE"/>
<path d="M11.7637 12.9297H12.8379V17.5781C12.8428 19.0625 11.7246 20.1172 10.0352 20.1172C8.33105 20.1172 7.21777 19.0625 7.22266 17.5781V12.9297H8.29688V17.4902C8.29199 18.4473 8.96094 19.1357 10.0352 19.1406C11.1045 19.1357 11.7637 18.4473 11.7637 17.4902V12.9297ZM14.2832 20V12.9297H16.8027C18.4482 12.9297 19.2539 13.8428 19.2539 15.1465C19.2539 16.0986 18.8242 16.8164 17.9648 17.1436L19.5273 20H18.3066L16.8711 17.334H16.8027H15.3574V20H14.2832ZM15.3574 16.4062H16.6953C17.7354 16.4014 18.1699 15.9424 18.1699 15.1465C18.1699 14.3506 17.7354 13.8525 16.6953 13.8477H15.3574V16.4062ZM20.4453 20V12.9297H21.5195V19.0723H24.7129V20H20.4453Z" fill="black"/>
</svg>
