<svg width="18" height="19" viewBox="0 0 18 19" fill="none" xmlns="http://www.w3.org/2000/svg">
<g clip-path="url(#clip0_91_20042)">
<path d="M8.4375 1.625V1.0625C8.4375 0.913316 8.49676 0.770242 8.60225 0.664752C8.70774 0.559263 8.85082 0.5 9 0.5C9.14918 0.5 9.29226 0.559263 9.39775 0.664752C9.50324 0.770242 9.5625 0.913316 9.5625 1.0625V1.625C9.5625 1.77418 9.50324 1.91726 9.39775 2.02275C9.29226 2.12824 9.14918 2.1875 9 2.1875C8.85082 2.1875 8.70774 2.12824 8.60225 2.02275C8.49676 1.91726 8.4375 1.77418 8.4375 1.625ZM14.0625 3.875C14.1364 3.87506 14.2096 3.86056 14.2779 3.83233C14.3461 3.8041 14.4082 3.76269 14.4605 3.71047L15.023 3.14797C15.1285 3.04242 15.1878 2.89927 15.1878 2.75C15.1878 2.60073 15.1285 2.45758 15.023 2.35203C14.9174 2.24648 14.7743 2.18719 14.625 2.18719C14.4757 2.18719 14.3326 2.24648 14.227 2.35203L13.6645 2.91453C13.5858 2.9932 13.5321 3.09347 13.5104 3.20264C13.4886 3.31181 13.4998 3.42498 13.5424 3.52782C13.585 3.63066 13.6572 3.71854 13.7498 3.78034C13.8423 3.84214 13.9512 3.87509 14.0625 3.875ZM3.53953 3.71047C3.64508 3.81602 3.78823 3.87531 3.9375 3.87531C4.08677 3.87531 4.22992 3.81602 4.33547 3.71047C4.44102 3.60492 4.50031 3.46177 4.50031 3.3125C4.50031 3.16323 4.44102 3.02008 4.33547 2.91453L3.77297 2.35203C3.66742 2.24648 3.52427 2.18719 3.375 2.18719C3.22573 2.18719 3.08258 2.24648 2.97703 2.35203C2.87148 2.45758 2.81219 2.60073 2.81219 2.75C2.81219 2.89927 2.87148 3.04242 2.97703 3.14797L3.53953 3.71047ZM9.65672 5.57023C9.58355 5.55729 9.50854 5.55898 9.43602 5.57519C9.3635 5.59141 9.29492 5.62183 9.23423 5.6647C9.17353 5.70758 9.12194 5.76205 9.08242 5.82497C9.0429 5.8879 9.01624 5.95803 9.00397 6.03132C8.99171 6.10461 8.99409 6.1796 9.01098 6.25197C9.02787 6.32433 9.05892 6.39263 9.10236 6.45292C9.14579 6.51322 9.20074 6.5643 9.26403 6.60324C9.32732 6.64217 9.39769 6.66818 9.47109 6.67977C10.8049 6.90406 11.8125 8.11625 11.8125 9.5C11.8125 9.64918 11.8718 9.79226 11.9773 9.89775C12.0827 10.0032 12.2258 10.0625 12.375 10.0625C12.5242 10.0625 12.6673 10.0032 12.7727 9.89775C12.8782 9.79226 12.9375 9.64918 12.9375 9.5C12.9375 7.57344 11.5263 5.88383 9.65531 5.57023H9.65672ZM16.3125 12.875V14.5625C16.3125 14.8609 16.194 15.147 15.983 15.358C15.772 15.569 15.4859 15.6875 15.1875 15.6875H2.8125C2.51413 15.6875 2.22798 15.569 2.017 15.358C1.80603 15.147 1.6875 14.8609 1.6875 14.5625V12.875C1.6875 12.5766 1.80603 12.2905 2.017 12.0795C2.22798 11.8685 2.51413 11.75 2.8125 11.75V9.5C2.81248 8.68347 2.97407 7.875 3.28796 7.12121C3.60185 6.36743 4.06184 5.68322 4.6414 5.10804C5.22096 4.53285 5.90864 4.07807 6.66479 3.76991C7.42093 3.46174 8.2306 3.30628 9.04711 3.3125C12.4327 3.33781 15.1875 6.14539 15.1875 9.57031V11.75C15.4859 11.75 15.772 11.8685 15.983 12.0795C16.194 12.2905 16.3125 12.5766 16.3125 12.875ZM3.9375 11.75H14.0625V9.57031C14.0625 6.75781 11.809 4.45789 9.03867 4.4375H9C7.65734 4.4375 6.36967 4.97087 5.42027 5.92027C4.47087 6.86967 3.9375 8.15734 3.9375 9.5V11.75ZM15.1875 14.5625V12.875H2.8125V14.5625H15.1875Z" fill="#616161"/>
</g>
<defs>
<clipPath id="clip0_91_20042">
<rect width="18" height="18" fill="white" transform="translate(0 0.5)"/>
</clipPath>
</defs>
</svg>
